<?xml version="1.0" encoding="UTF-8" standalone="no"?>
<!-- Generator: Adobe Illustrator 19.0.0, SVG Export Plug-In . SVG Version: 6.00 Build 0)  -->

<svg
   xmlns:dc="http://purl.org/dc/elements/1.1/"
   xmlns:cc="http://creativecommons.org/ns#"
   xmlns:rdf="http://www.w3.org/1999/02/22-rdf-syntax-ns#"
   xmlns:svg="http://www.w3.org/2000/svg"
   xmlns="http://www.w3.org/2000/svg"
   xmlns:sodipodi="http://sodipodi.sourceforge.net/DTD/sodipodi-0.dtd"
   xmlns:inkscape="http://www.inkscape.org/namespaces/inkscape"
   version="1.1"
   id="Layer_1"
   x="0px"
   y="0px"
   viewBox="0 0 100 100"
   xml:space="preserve"
   inkscape:version="0.91 r13725"
   sodipodi:docname="burger.svg"
   width="100"
   height="100"><metadata
     id="metadata61"><rdf:RDF><cc:Work
         rdf:about=""><dc:format>image/svg+xml</dc:format><dc:type
           rdf:resource="http://purl.org/dc/dcmitype/StillImage" /><dc:title></dc:title></cc:Work></rdf:RDF></metadata><defs
     id="defs59" /><sodipodi:namedview
     pagecolor="#ffffff"
     bordercolor="#666666"
     borderopacity="1"
     objecttolerance="10"
     gridtolerance="10"
     guidetolerance="10"
     inkscape:pageopacity="0"
     inkscape:pageshadow="2"
     inkscape:window-width="1366"
     inkscape:window-height="705"
     id="namedview57"
     showgrid="false"
     inkscape:zoom="1.0143514"
     inkscape:cx="-188.29767"
     inkscape:cy="116.3305"
     inkscape:window-x="-8"
     inkscape:window-y="-8"
     inkscape:window-maximized="1"
     inkscape:current-layer="Layer_1" /><g
     id="g3"
     transform="matrix(0.48304512,0,0,0.4298099,-6.1931209,-2e-6)"><path
       style="fill:#ffe49c"
       d="m 116.33,7.501 c -49.257,0 -89.851,37.094 -95.37,84.872 -0.685,5.933 3.97,11.138 9.943,11.138 l 170.856,0 c 5.973,0 10.628,-5.205 9.943,-11.138 C 206.181,44.595 165.588,7.501 116.33,7.501 Z"
       id="path5"
       inkscape:connector-curvature="0" /><path
       style="fill:#cbe5c0"
       d="m 194.319,139.664 -155.978,0 c -9.953,0 -18.021,-8.068 -18.021,-18.021 l 0,-0.113 c 0,-9.952 8.068,-18.021 18.021,-18.021 l 155.978,0 c 9.952,0 18.021,8.068 18.021,18.021 l 0,0.113 c 0,9.953 -8.068,18.021 -18.021,18.021 z"
       id="path7"
       inkscape:connector-curvature="0" /><path
       style="fill:#ff7876"
       d="m 194.319,175.818 -155.978,0 c -9.953,0 -18.021,-8.068 -18.021,-18.02 l 0,-0.113 c 0,-9.952 8.068,-18.02 18.021,-18.02 l 155.978,0 c 9.952,0 18.021,8.068 18.021,18.02 l 0,0.113 c 0,9.952 -8.068,18.02 -18.021,18.02 z"
       id="path9"
       inkscape:connector-curvature="0" /><path
       style="fill:#ffe49c"
       d="m 191.34,225.16 -150.019,0 c -11.598,0 -21,-9.402 -21,-21 l 0,-18.342 c 0,-5.523 4.477,-10 10,-10 l 172.019,0 c 5.523,0 10,4.477 10,10 l 0,18.342 c 0,11.598 -9.402,21 -21,21 z"
       id="path11"
       inkscape:connector-curvature="0" /><polygon
       style="fill:#f59d00"
       points="154.101,165.818 124.556,139.664 183.645,139.664 "
       id="polygon13" /><g
       id="g15"><path
         style="fill:#414042"
         d="m 219.84,121.53 c 0,-5.985 -2.076,-11.49 -5.538,-15.847 3.852,-3.964 5.427,-9.181 4.849,-14.172 C 213.124,39.342 168.921,0 116.33,0 63.739,0 19.536,39.342 13.509,91.512 c -0.576,4.995 1.001,10.212 4.85,14.172 -3.462,4.357 -5.538,9.862 -5.538,15.847 l 0,0.113 c 0,7.028 2.856,13.401 7.467,18.02 -4.612,4.62 -7.467,10.993 -7.467,18.021 l 0,0.112 c 0,5.834 1.972,11.214 5.28,15.518 -3.252,3.179 -5.28,7.606 -5.28,12.503 l 0,18.343 c 0,15.715 12.785,28.5 28.5,28.5 l 150.02,0 c 15.715,0 28.5,-12.785 28.5,-28.5 l 0,-18.343 c 0,-4.896 -2.027,-9.324 -5.279,-12.503 3.307,-4.303 5.279,-9.683 5.279,-15.518 l 0,-0.112 c 0,-7.028 -2.856,-13.401 -7.467,-18.021 4.612,-4.62 7.467,-10.993 7.467,-18.02 l 0,-0.114 -0.001,0 z m -15,0.114 c 0,5.801 -4.72,10.52 -10.521,10.52 -10.292,0 -59.259,0 -69.763,0 l -86.215,0 c -5.801,0 -10.521,-4.72 -10.521,-10.52 l 0,-0.113 c 0,-5.801 4.72,-10.52 10.521,-10.52 l 155.978,0 c 5.801,0 10.521,4.72 10.521,10.52 l 0,0.113 z m 0,36.041 0,0.112 c 0,5.801 -4.72,10.52 -10.521,10.52 l -31.727,0 23.896,-21.153 7.831,0 c 5.801,0 10.521,4.72 10.521,10.521 z m -177.02,0.112 0,-0.112 c 0,-5.801 4.72,-10.521 10.521,-10.521 l 83.372,0 23.896,21.153 -107.268,0 c -5.801,0 -10.521,-4.719 -10.521,-10.52 z m 116.524,-10.633 19.514,0 -9.757,8.637 -9.757,-8.637 z M 116.33,15 c 44.97,0 82.768,33.633 87.92,78.232 0.17,1.474 -0.996,2.777 -2.493,2.777 -6.111,0 -164.873,0 -170.855,0 -1.487,0 -2.663,-1.294 -2.493,-2.777 C 33.563,48.633 71.36,15 116.33,15 Z m 88.51,189.16 c 0,7.444 -6.056,13.5 -13.5,13.5 l -150.02,0 c -7.444,0 -13.5,-6.056 -13.5,-13.5 l 0,-18.343 c 0,-1.379 1.122,-2.5 2.5,-2.5 11.006,0 166.415,0 172.02,0 1.378,0 2.5,1.121 2.5,2.5 l 0,18.343 z"
         id="path17"
         inkscape:connector-curvature="0" /><circle
         style="fill:#414042"
         cx="103.974"
         cy="41.215"
         r="5"
         id="circle19" /><circle
         style="fill:#414042"
         cx="81.019997"
         cy="55.279999"
         r="5"
         id="circle21" /><circle
         style="fill:#414042"
         cx="128.687"
         cy="41.215"
         r="5"
         id="circle23" /><circle
         style="fill:#414042"
         cx="151.64"
         cy="55.279999"
         r="5"
         id="circle25" /></g></g><g
     id="g27"
     transform="translate(0,-132.661)" /><g
     id="g29"
     transform="translate(0,-132.661)" /><g
     id="g31"
     transform="translate(0,-132.661)" /><g
     id="g33"
     transform="translate(0,-132.661)" /><g
     id="g35"
     transform="translate(0,-132.661)" /><g
     id="g37"
     transform="translate(0,-132.661)" /><g
     id="g39"
     transform="translate(0,-132.661)" /><g
     id="g41"
     transform="translate(0,-132.661)" /><g
     id="g43"
     transform="translate(0,-132.661)" /><g
     id="g45"
     transform="translate(0,-132.661)" /><g
     id="g47"
     transform="translate(0,-132.661)" /><g
     id="g49"
     transform="translate(0,-132.661)" /><g
     id="g51"
     transform="translate(0,-132.661)" /><g
     id="g53"
     transform="translate(0,-132.661)" /><g
     id="g55"
     transform="translate(0,-132.661)" /></svg>