<?xml version="1.0" encoding="UTF-8" standalone="no"?>
<!-- Generator: Adobe Illustrator 19.0.0, SVG Export Plug-In . SVG Version: 6.00 Build 0)  -->

<svg
   xmlns:dc="http://purl.org/dc/elements/1.1/"
   xmlns:cc="http://creativecommons.org/ns#"
   xmlns:rdf="http://www.w3.org/1999/02/22-rdf-syntax-ns#"
   xmlns:svg="http://www.w3.org/2000/svg"
   xmlns="http://www.w3.org/2000/svg"
   xmlns:sodipodi="http://sodipodi.sourceforge.net/DTD/sodipodi-0.dtd"
   xmlns:inkscape="http://www.inkscape.org/namespaces/inkscape"
   version="1.1"
   id="Capa_1"
   x="0px"
   y="0px"
   viewBox="0 0 100 100"
   xml:space="preserve"
   inkscape:version="0.91 r13725"
   sodipodi:docname="calendar.svg"
   width="100"
   height="100"><metadata
     id="metadata71"><rdf:RDF><cc:Work
         rdf:about=""><dc:format>image/svg+xml</dc:format><dc:type
           rdf:resource="http://purl.org/dc/dcmitype/StillImage" /><dc:title></dc:title></cc:Work></rdf:RDF></metadata><defs
     id="defs69" /><sodipodi:namedview
     pagecolor="#ffffff"
     bordercolor="#666666"
     borderopacity="1"
     objecttolerance="10"
     gridtolerance="10"
     guidetolerance="10"
     inkscape:pageopacity="0"
     inkscape:pageshadow="2"
     inkscape:window-width="1366"
     inkscape:window-height="705"
     id="namedview67"
     showgrid="false"
     inkscape:zoom="1"
     inkscape:cx="-47.75"
     inkscape:cy="29.5"
     inkscape:window-x="-8"
     inkscape:window-y="-8"
     inkscape:window-maximized="1"
     inkscape:current-layer="Capa_1" /><g
     id="g3399"
     transform="matrix(1.7241379,0,0,1.6949153,-0.36206899,-2e-6)"><rect
       id="rect3"
       height="42"
       width="56"
       style="fill:#a7afc6"
       y="16"
       x="1.5" /><polygon
       id="polygon5"
       points="0.5,15 58.5,15 58.5,5 42.5,5 16.5,5 0.5,5 "
       style="fill:#424a60" /><circle
       id="circle7"
       r="2"
       cy="9"
       cx="20.5"
       style="fill:#262b38" /><circle
       id="circle9"
       r="2"
       cy="9"
       cx="26.5"
       style="fill:#262b38" /><circle
       id="circle11"
       r="2"
       cy="9"
       cx="32.5"
       style="fill:#262b38" /><circle
       id="circle13"
       r="2"
       cy="9"
       cx="38.5"
       style="fill:#262b38" /><path
       id="path15"
       d="m 38.5,0 c -1.13,0 -2.162,0.391 -3,1.025 0.534,0.405 0.979,0.912 1.315,1.495 C 37.296,2.192 37.876,2 38.5,2 c 1.654,0 3,1.346 3,3 0,1.654 -1.346,3 -3,3 -0.553,0 -1,0.447 -1,1 0,0.553 0.447,1 1,1 2.757,0 5,-2.243 5,-5 0,-2.757 -2.243,-5 -5,-5 z"
       style="fill:#afb6bb"
       inkscape:connector-curvature="0" /><path
       id="path17"
       d="M 34.185,2.52 C 33.761,3.254 33.5,4.093 33.5,5 l 2,0 c 0,-1.03 -0.522,-1.939 -1.315,-2.48 z"
       style="fill:#839594"
       inkscape:connector-curvature="0" /><path
       id="path19"
       d="M 28.185,2.52 C 27.761,3.254 27.5,4.093 27.5,5 l 2,0 c 0,-1.03 -0.522,-1.939 -1.315,-2.48 z"
       style="fill:#839594"
       inkscape:connector-curvature="0" /><path
       id="path21"
       d="M 36.815,2.52 C 36.478,1.937 36.034,1.43 35.5,1.025 34.662,0.391 33.63,0 32.5,0 31.37,0 30.338,0.391 29.5,1.025 30.034,1.43 30.479,1.937 30.815,2.52 31.296,2.192 31.876,2 32.5,2 33.124,2 33.704,2.192 34.185,2.52 34.978,3.061 35.5,3.97 35.5,5 c 0,1.654 -1.346,3 -3,3 -0.553,0 -1,0.447 -1,1 0,0.553 0.447,1 1,1 2.757,0 5,-2.243 5,-5 0,-0.907 -0.261,-1.746 -0.685,-2.48 z"
       style="fill:#afb6bb"
       inkscape:connector-curvature="0" /><path
       id="path23"
       d="M 22.185,2.52 C 21.761,3.254 21.5,4.093 21.5,5 l 2,0 c 0,-1.03 -0.522,-1.939 -1.315,-2.48 z"
       style="fill:#839594"
       inkscape:connector-curvature="0" /><path
       id="path25"
       d="M 30.815,2.52 C 30.478,1.937 30.034,1.43 29.5,1.025 28.662,0.391 27.63,0 26.5,0 25.37,0 24.338,0.391 23.5,1.025 24.034,1.43 24.479,1.937 24.815,2.52 25.296,2.192 25.876,2 26.5,2 27.124,2 27.704,2.192 28.185,2.52 28.978,3.061 29.5,3.97 29.5,5 c 0,1.654 -1.346,3 -3,3 -0.553,0 -1,0.447 -1,1 0,0.553 0.447,1 1,1 2.757,0 5,-2.243 5,-5 0,-0.907 -0.261,-1.746 -0.685,-2.48 z"
       style="fill:#afb6bb"
       inkscape:connector-curvature="0" /><path
       id="path27"
       d="M 24.815,2.52 C 24.478,1.937 24.034,1.43 23.5,1.025 22.662,0.391 21.63,0 20.5,0 c -2.757,0 -5,2.243 -5,5 l 2,0 c 0,-1.654 1.346,-3 3,-3 0.624,0 1.204,0.192 1.685,0.52 0.793,0.541 1.315,1.45 1.315,2.48 0,1.654 -1.346,3 -3,3 -0.553,0 -1,0.447 -1,1 0,0.553 0.447,1 1,1 2.757,0 5,-2.243 5,-5 0,-0.907 -0.261,-1.746 -0.685,-2.48 z"
       style="fill:#afb6bb"
       inkscape:connector-curvature="0" /><rect
       id="rect29"
       height="14"
       width="14"
       style="fill:none;stroke:#1081e0;stroke-width:2;stroke-linecap:round;stroke-miterlimit:10"
       y="30"
       x="29.5" /><path
       id="path31"
       d="m 44.5,15 -2,0 -12,0 -2,0 -12,0 -2,0 -14,0 0,14 0,2 0,12 0,2 0,14 14,0 2,0 12,0 2,0 12,0 2,0 14,0 0,-14 0,-2 0,-12 0,-2 0,-14 -14,0 z m -14,2 12,0 0,12 -12,0 0,-12 z m 12,26 -12,0 0,-12 12,0 0,12 z m -26,-12 12,0 0,12 -12,0 0,-12 z m 0,-14 12,0 0,12 -12,0 0,-12 z m -14,0 12,0 0,12 -12,0 0,-12 z m 0,14 12,0 0,12 -12,0 0,-12 z m 12,26 -12,0 0,-12 12,0 0,12 z m 14,0 -12,0 0,-12 12,0 0,12 z m 14,0 -12,0 0,-12 12,0 0,12 z m 14,0 -12,0 0,-12 12,0 0,12 z m 0,-14 -12,0 0,-12 12,0 0,12 z m -12,-14 0,-12 12,0 0,12 -12,0 z"
       style="fill:#556080"
       inkscape:connector-curvature="0" /><rect
       id="rect33"
       height="12"
       width="12"
       style="fill:#ebba16"
       y="31"
       x="30.5" /><path
       id="path35"
       d="m 37.914,37 3.293,-3.293 c 0.391,-0.391 0.391,-1.023 0,-1.414 -0.391,-0.391 -1.023,-0.391 -1.414,0 L 36.5,35.586 33.207,32.293 c -0.391,-0.391 -1.023,-0.391 -1.414,0 -0.391,0.391 -0.391,1.023 0,1.414 L 35.086,37 31.793,40.293 c -0.391,0.391 -0.391,1.023 0,1.414 0.195,0.195 0.451,0.293 0.707,0.293 0.256,0 0.512,-0.098 0.707,-0.293 l 3.293,-3.293 3.293,3.293 C 39.988,41.902 40.244,42 40.5,42 c 0.256,0 0.512,-0.098 0.707,-0.293 0.391,-0.391 0.391,-1.023 0,-1.414 L 37.914,37 Z"
       style="fill:#efce4a"
       inkscape:connector-curvature="0" /></g><g
     id="g37"
     transform="translate(0,41)" /><g
     id="g39"
     transform="translate(0,41)" /><g
     id="g41"
     transform="translate(0,41)" /><g
     id="g43"
     transform="translate(0,41)" /><g
     id="g45"
     transform="translate(0,41)" /><g
     id="g47"
     transform="translate(0,41)" /><g
     id="g49"
     transform="translate(0,41)" /><g
     id="g51"
     transform="translate(0,41)" /><g
     id="g53"
     transform="translate(0,41)" /><g
     id="g55"
     transform="translate(0,41)" /><g
     id="g57"
     transform="translate(0,41)" /><g
     id="g59"
     transform="translate(0,41)" /><g
     id="g61"
     transform="translate(0,41)" /><g
     id="g63"
     transform="translate(0,41)" /><g
     id="g65"
     transform="translate(0,41)" /></svg>