<?xml version="1.0" encoding="UTF-8" standalone="no"?>
<!-- Generator: Adobe Illustrator 19.0.0, SVG Export Plug-In . SVG Version: 6.00 Build 0)  -->

<svg
   xmlns:dc="http://purl.org/dc/elements/1.1/"
   xmlns:cc="http://creativecommons.org/ns#"
   xmlns:rdf="http://www.w3.org/1999/02/22-rdf-syntax-ns#"
   xmlns:svg="http://www.w3.org/2000/svg"
   xmlns="http://www.w3.org/2000/svg"
   xmlns:sodipodi="http://sodipodi.sourceforge.net/DTD/sodipodi-0.dtd"
   xmlns:inkscape="http://www.inkscape.org/namespaces/inkscape"
   version="1.1"
   id="Layer_1"
   x="0px"
   y="0px"
   viewBox="0 0 100 100"
   xml:space="preserve"
   inkscape:version="0.91 r13725"
   sodipodi:docname="filmereel.svg"
   width="100"
   height="100"><metadata
     id="metadata47"><rdf:RDF><cc:Work
         rdf:about=""><dc:format>image/svg+xml</dc:format><dc:type
           rdf:resource="http://purl.org/dc/dcmitype/StillImage" /><dc:title></dc:title></cc:Work></rdf:RDF></metadata><defs
     id="defs45" /><sodipodi:namedview
     pagecolor="#ffffff"
     bordercolor="#666666"
     borderopacity="1"
     objecttolerance="10"
     gridtolerance="10"
     guidetolerance="10"
     inkscape:pageopacity="0"
     inkscape:pageshadow="2"
     inkscape:window-width="1366"
     inkscape:window-height="705"
     id="namedview43"
     showgrid="false"
     inkscape:zoom="1.3037281"
     inkscape:cx="-30.22191"
     inkscape:cy="40.966238"
     inkscape:window-x="-8"
     inkscape:window-y="-8"
     inkscape:window-maximized="1"
     inkscape:current-layer="Layer_1" /><g
     id="g3375"
     transform="scale(0.19531288,0.19531249)"><path
       id="path3"
       d="m 503.607,512 c -45.141,0 -81.865,-36.724 -81.865,-81.865 l 0,-52.85 c 0,-4.637 3.758,-8.393 8.393,-8.393 4.635,0 8.393,3.757 8.393,8.393 l 0,52.85 c 0,35.884 29.194,65.078 65.078,65.078 4.635,0 8.393,3.757 8.393,8.393 10e-4,4.637 -3.757,8.394 -8.392,8.394 z"
       style="fill:#1b4145"
       inkscape:connector-curvature="0" /><circle
       id="circle5"
       r="222.44901"
       cy="251.80299"
       cx="251.80299"
       style="fill:#8b7e7f" /><circle
       id="circle7"
       r="144.11"
       cy="251.80299"
       cx="251.80299"
       style="fill:#1b4145" /><path
       id="path9"
       d="M 251.803,0 C 112.736,0 0,112.736 0,251.803 0,390.87 112.736,503.606 251.803,503.606 390.87,503.606 503.607,390.87 503.607,251.803 503.607,112.736 390.87,0 251.803,0 Z M 53.035,187.22 c 11.173,-34.388 48.108,-53.207 82.495,-42.034 34.387,11.173 53.207,48.108 42.033,82.496 -11.174,34.388 -48.108,53.207 -82.495,42.034 C 60.681,258.542 41.862,221.608 53.035,187.22 Z m 167.37,219.182 c -21.253,29.253 -62.195,35.737 -91.447,14.484 -29.252,-21.252 -35.737,-62.195 -14.484,-91.447 21.253,-29.253 62.195,-35.737 91.447,-14.484 29.252,21.253 35.737,62.195 14.484,91.447 z M 186.334,108.275 c 0,-36.158 29.311,-65.469 65.469,-65.469 36.158,0 65.469,29.311 65.469,65.469 0,36.158 -29.311,65.469 -65.469,65.469 -36.158,0 -65.469,-29.311 -65.469,-65.469 z m 188.315,312.61 c -29.252,21.252 -70.194,14.768 -91.447,-14.484 -21.253,-29.252 -14.768,-70.194 14.484,-91.447 29.252,-21.252 70.194,-14.768 91.447,14.484 21.252,29.252 14.767,70.195 -14.484,91.447 z m 33.888,-151.169 c -34.387,11.172 -71.322,-7.646 -82.495,-42.034 -11.173,-34.388 7.646,-71.322 42.033,-82.496 34.387,-11.172 71.322,7.646 82.495,42.034 11.173,34.388 -7.645,71.322 -42.033,82.496 z"
       style="fill:#c2b8b9"
       inkscape:connector-curvature="0" /><circle
       id="circle11"
       r="35.251999"
       cy="251.80299"
       cx="251.80299"
       style="fill:#8b7e7f" /></g><g
     id="g13"
     transform="translate(0,-412)" /><g
     id="g15"
     transform="translate(0,-412)" /><g
     id="g17"
     transform="translate(0,-412)" /><g
     id="g19"
     transform="translate(0,-412)" /><g
     id="g21"
     transform="translate(0,-412)" /><g
     id="g23"
     transform="translate(0,-412)" /><g
     id="g25"
     transform="translate(0,-412)" /><g
     id="g27"
     transform="translate(0,-412)" /><g
     id="g29"
     transform="translate(0,-412)" /><g
     id="g31"
     transform="translate(0,-412)" /><g
     id="g33"
     transform="translate(0,-412)" /><g
     id="g35"
     transform="translate(0,-412)" /><g
     id="g37"
     transform="translate(0,-412)" /><g
     id="g39"
     transform="translate(0,-412)" /><g
     id="g41"
     transform="translate(0,-412)" /></svg>