<?xml version="1.0" encoding="UTF-8" standalone="no"?>
<svg
   xmlns:dc="http://purl.org/dc/elements/1.1/"
   xmlns:cc="http://creativecommons.org/ns#"
   xmlns:rdf="http://www.w3.org/1999/02/22-rdf-syntax-ns#"
   xmlns:svg="http://www.w3.org/2000/svg"
   xmlns="http://www.w3.org/2000/svg"
   xmlns:sodipodi="http://sodipodi.sourceforge.net/DTD/sodipodi-0.dtd"
   xmlns:inkscape="http://www.inkscape.org/namespaces/inkscape"
   height="100"
   version="1.0"
   viewBox="0 0 100 100"
   width="100"
   xml:space="preserve"
   id="svg2"
   inkscape:version="0.91 r13725"
   sodipodi:docname="food.svg"><metadata
     id="metadata46"><rdf:RDF><cc:Work
         rdf:about=""><dc:format>image/svg+xml</dc:format><dc:type
           rdf:resource="http://purl.org/dc/dcmitype/StillImage" /><dc:title></dc:title></cc:Work></rdf:RDF></metadata><defs
     id="defs44" /><sodipodi:namedview
     pagecolor="#ffffff"
     bordercolor="#666666"
     borderopacity="1"
     objecttolerance="10"
     gridtolerance="10"
     guidetolerance="10"
     inkscape:pageopacity="0"
     inkscape:pageshadow="2"
     inkscape:window-width="1366"
     inkscape:window-height="705"
     id="namedview42"
     showgrid="false"
     inkscape:zoom="2.1454545"
     inkscape:cx="55"
     inkscape:cy="55"
     inkscape:window-x="-8"
     inkscape:window-y="-8"
     inkscape:window-maximized="1"
     inkscape:current-layer="svg2" /><g
     id="Artboard"
     transform="translate(0,-10)" /><g
     id="Multicolor"
     transform="scale(0.90909091,0.90909091)"><circle
       cx="55"
       cy="55"
       r="55"
       style="fill:#25b7d3"
       id="circle6" /><g
       id="g8"><g
         id="g10"><path
           d="m 37,79 c 0,0 3.778,-10.39 -2.436,-17.401 -0.339,-0.383 -0.336,-0.96 0.01,-1.337 C 36.719,57.917 40.528,57.967 46,68 c 1.429,2.619 4.409,2.479 7,1 4.928,-2.813 12.04,-11.775 19.5,-9.592 0.339,0.099 0.601,0.37 0.688,0.712 0.087,0.342 -0.013,0.705 -0.263,0.955 L 47,87 37,79 Z"
           style="fill:#fbc8c8"
           id="path12"
           inkscape:connector-curvature="0" /></g><g
         id="g14"><path
           d="m 87,58 c 0,0.552 -0.448,1 -1,1 l -62,0 c -0.552,0 -1,-0.448 -1,-1 l 0,-2 c 0,-0.552 0.448,-1 1,-1 l 62,0 c 0.552,0 1,0.448 1,1 l 0,2 z"
           style="fill:#f0f1f1"
           id="path16"
           inkscape:connector-curvature="0" /></g><g
         id="g18"><path
           d="m 55,27 c 1.042,0 2.034,0.046 3,0.115 L 58,24 c 0,-0.552 -0.448,-1 -1,-1 l -4,0 c -0.552,0 -1,0.448 -1,1 l 0,3.115 C 52.966,27.046 53.958,27 55,27 Z"
           style="fill:#ffffff"
           id="path20"
           inkscape:connector-curvature="0" /></g><g
         id="g22"><path
           d="m 27,55 c 0,0 -1,-28 28,-28 29,0 28,28 28,28 l -56,0 z"
           style="fill:#e2e4e5"
           id="path24"
           inkscape:connector-curvature="0" /></g><g
         id="g26"><polygon
           points="27,87 47,87 37,79 "
           style="fill:#3e3e3f"
           id="polygon28" /></g><g
         id="g30"><path
           d="M 55,27 C 26,27 27,55 27,55 l 28,0 0,-28 z"
           style="fill:#ffffff"
           id="path32"
           inkscape:connector-curvature="0" /></g><g
         id="g34"><path
           d="m 37,79 c 0,0 3.778,-10.39 -2.436,-17.401 -0.339,-0.383 -0.336,-0.96 0.01,-1.337 C 36.719,57.917 40.528,57.967 46,68 c 1.429,2.619 4.409,2.479 7,1 4.928,-2.813 12.04,-11.775 19.5,-9.592 0.339,0.099 0.601,0.37 0.688,0.712 0.087,0.342 -0.013,0.705 -0.263,0.955 L 47,87 37,79 Z"
           style="fill:#fbc8c8"
           id="path36"
           inkscape:connector-curvature="0" /></g><g
         id="g38"><path
           d="m 72.925,61.075 c 0.25,-0.25 0.35,-0.612 0.263,-0.955 C 73.101,59.777 72.839,59.507 72.5,59.408 65.04,57.226 57.928,66.187 53,69 50.409,70.479 47.429,70.619 46,68 40.528,57.967 36.719,57.917 34.574,60.262 34.229,60.639 34.225,61.217 34.564,61.599 40.778,68.609 37,79 37,79 l 2.727,2.182 30.975,-17.884 2.223,-2.223 z"
           style="fill:#f7b4b4"
           id="path40"
           inkscape:connector-curvature="0" /></g></g></g></svg>