<?xml version="1.0" encoding="UTF-8" standalone="no"?>
<!-- Generator: Adobe Illustrator 19.0.0, SVG Export Plug-In . SVG Version: 6.00 Build 0)  -->

<svg
   xmlns:dc="http://purl.org/dc/elements/1.1/"
   xmlns:cc="http://creativecommons.org/ns#"
   xmlns:rdf="http://www.w3.org/1999/02/22-rdf-syntax-ns#"
   xmlns:svg="http://www.w3.org/2000/svg"
   xmlns="http://www.w3.org/2000/svg"
   xmlns:sodipodi="http://sodipodi.sourceforge.net/DTD/sodipodi-0.dtd"
   xmlns:inkscape="http://www.inkscape.org/namespaces/inkscape"
   version="1.1"
   id="Layer_1"
   x="0px"
   y="0px"
   viewBox="0 0 100 100"
   xml:space="preserve"
   inkscape:version="0.91 r13725"
   sodipodi:docname="onlineshop.svg"
   width="100"
   height="100"><metadata
     id="metadata129"><rdf:RDF><cc:Work
         rdf:about=""><dc:format>image/svg+xml</dc:format><dc:type
           rdf:resource="http://purl.org/dc/dcmitype/StillImage" /><dc:title></dc:title></cc:Work></rdf:RDF></metadata><defs
     id="defs127" /><sodipodi:namedview
     pagecolor="#ffffff"
     bordercolor="#666666"
     borderopacity="1"
     objecttolerance="10"
     gridtolerance="10"
     guidetolerance="10"
     inkscape:pageopacity="0"
     inkscape:pageshadow="2"
     inkscape:window-width="1366"
     inkscape:window-height="705"
     id="namedview125"
     showgrid="false"
     inkscape:zoom="1.8821616"
     inkscape:cx="196.71853"
     inkscape:cy="45.088008"
     inkscape:window-x="-8"
     inkscape:window-y="-8"
     inkscape:window-maximized="1"
     inkscape:current-layer="Layer_1" /><g
     id="g3457"
     transform="matrix(0.19938152,0,0,0.19938152,0,1.5126953e-5)"><path
       id="path3"
       d="m 480.653,78.367 -459.755,0 C 9.404,78.367 0,87.771 0,99.265 l 0,311.38 c 0,11.494 9.404,20.898 20.898,20.898 l 459.755,0 c 11.494,0 20.898,-9.404 20.898,-20.898 l 0,-311.38 c 0,-11.494 -9.404,-20.898 -20.898,-20.898 z"
       style="fill:#40596b"
       inkscape:connector-curvature="0" /><rect
       id="rect5"
       height="289.43701"
       width="438.85699"
       style="fill:#ffffff"
       y="109.714"
       x="31.347" /><rect
       id="rect7"
       height="56.424999"
       width="191.216"
       style="fill:#cdd6e0"
       y="431.543"
       x="154.645" /><rect
       id="rect9"
       height="13.584"
       width="307.20001"
       style="fill:#f2f2f2"
       y="487.96701"
       x="97.176003" /><rect
       id="rect11"
       height="15.673"
       width="191.216"
       style="fill:#acb3ba"
       y="431.543"
       x="154.645" /><path
       id="path13"
       d="m 432.588,117.029 0,265.404 c 0,9.404 -7.314,16.718 -16.718,16.718 l -331.233,0 c -9.404,0 -16.718,-7.314 -16.718,-16.718 l 0,-265.404 364.669,0 z"
       style="fill:#f2f2f2"
       inkscape:connector-curvature="0" /><g
       id="g15"><path
         id="path17"
         d="m 252.865,191.216 0,39.706 c -1.045,0 -1.045,0 -2.09,0 -1.045,0 -1.045,0 -2.09,0 l 0,-39.706 4.18,0 z"
         style="fill:#ffffff"
         inkscape:connector-curvature="0" /><path
         id="path19"
         d="m 252.865,343.771 0,39.706 -4.18,0 0,-39.706 c 1.045,0 1.045,0 2.09,0 1.045,0 1.045,0 2.09,0 z"
         style="fill:#ffffff"
         inkscape:connector-curvature="0" /><path
         id="path21"
         d="m 319.739,220.473 -28.212,28.212 c -1.045,-1.045 -2.09,-2.09 -3.135,-3.135 l 28.212,-28.212 3.135,3.135 z"
         style="fill:#ffffff"
         inkscape:connector-curvature="0" /><path
         id="path23"
         d="m 212.114,329.143 -28.212,28.212 -3.135,-3.135 28.212,-28.212 c 1.045,1.045 2.09,2.09 3.135,3.135 z"
         style="fill:#ffffff"
         inkscape:connector-curvature="0" /><path
         id="path25"
         d="m 346.906,285.257 0,4.18 -38.661,0 c 0,-1.045 0,-1.045 0,-2.09 0,-1.045 0,-1.045 0,-2.09 l 38.661,0 0,0 z"
         style="fill:#ffffff"
         inkscape:connector-curvature="0" /><path
         id="path27"
         d="m 194.351,287.347 c 0,1.045 0,1.045 0,2.09 l -38.661,0 0,-4.18 38.661,0 c 0,0 0,1.045 0,2.09 z"
         style="fill:#ffffff"
         inkscape:connector-curvature="0" /><path
         id="path29"
         d="m 319.739,353.176 -3.135,3.135 -27.167,-27.167 c 1.045,-1.045 2.09,-2.09 3.135,-3.135 l 27.167,27.167 z"
         style="fill:#ffffff"
         inkscape:connector-curvature="0" /><path
         id="path31"
         d="m 212.114,245.551 c -1.045,1.045 -2.09,2.09 -3.135,3.135 l -28.212,-28.212 3.135,-3.135 28.212,28.212 z"
         style="fill:#ffffff"
         inkscape:connector-curvature="0" /><path
         id="path33"
         d="m 230.922,234.057 c -1.045,0 -2.09,1.045 -4.18,2.09 l -9.404,-21.943 4.18,-2.09 9.404,21.943 z"
         style="fill:#ffffff"
         inkscape:connector-curvature="0" /><path
         id="path35"
         d="m 283.167,361.535 -4.18,2.09 -9.404,-21.943 c 1.045,0 2.09,-1.045 4.18,-2.09 l 9.404,21.943 z"
         style="fill:#ffffff"
         inkscape:connector-curvature="0" /><path
         id="path37"
         d="m 199.576,263.314 c -1.045,1.045 -1.045,2.09 -2.09,4.18 l -21.943,-9.404 2.09,-4.18 21.943,9.404 z"
         style="fill:#ffffff"
         inkscape:connector-curvature="0" /><path
         id="path39"
         d="m 326.008,316.604 -2.09,4.18 -21.943,-9.404 c 1.045,-1.045 1.045,-2.09 2.09,-4.18 l 21.943,9.404 z"
         style="fill:#ffffff"
         inkscape:connector-curvature="0" /><path
         id="path41"
         d="m 199.576,310.335 -21.943,9.404 -2.09,-4.18 21.943,-9.404 c 1.045,2.09 1.045,3.135 2.09,4.18 z"
         style="fill:#ffffff"
         inkscape:connector-curvature="0" /><path
         id="path43"
         d="m 326.008,258.09 -21.943,9.404 c 0,-1.045 -1.045,-2.09 -2.09,-4.18 l 21.943,-9.404 2.09,4.18 z"
         style="fill:#ffffff"
         inkscape:connector-curvature="0" /><path
         id="path45"
         d="m 230.922,340.637 -9.404,21.943 -4.18,-2.09 9.404,-21.943 c 2.091,1.045 3.136,1.045 4.18,2.09 z"
         style="fill:#ffffff"
         inkscape:connector-curvature="0" /><path
         id="path47"
         d="m 283.167,213.159 -8.359,21.943 c -1.045,-1.045 -2.09,-1.045 -4.18,-2.09 l 9.404,-21.943 3.135,2.09 z"
         style="fill:#ffffff"
         inkscape:connector-curvature="0" /></g><path
       id="path49"
       d="M 411.69,0 89.861,0 C 78.367,0 68.963,9.404 68.963,20.898 l 0,54.335 364.669,0 0,-54.335 C 432.588,9.404 423.184,0 411.69,0 Z"
       style="fill:#ffd15c"
       inkscape:connector-curvature="0" /><polygon
       id="polygon51"
       points="379.298,344.816 394.971,329.143 378.253,311.38 394.971,293.616 324.963,273.763 344.816,344.816 362.58,327.053 "
       style="fill:#40596b" /><circle
       id="ellipse53"
       cy="37.616001"
       cx="205.845"
       style="fill:#f8b64c"
       r="12.539" /><circle
       id="ellipse55"
       cy="37.616001"
       cx="157.78"
       style="fill:#ff7058"
       r="12.539" /><circle
       id="ellipse57"
       cy="37.616001"
       cx="109.714"
       style="fill:#f8b64c"
       r="12.539" /><path
       id="path59"
       d="m 432.588,125.388 0,49.11 c -6.269,5.224 -14.629,7.314 -22.988,7.314 -21.943,0 -39.706,-17.763 -39.706,-39.706 0,21.943 -17.763,39.706 -39.706,39.706 -21.943,0 -39.706,-17.763 -39.706,-39.706 0,21.943 -17.763,39.706 -39.706,39.706 -21.943,0 -39.706,-17.763 -39.706,-39.706 0,21.943 -17.763,39.706 -39.706,39.706 -21.943,0 -39.706,-17.763 -39.706,-39.706 0,21.943 -17.763,39.706 -39.706,39.706 -8.359,0 -16.718,-3.135 -22.988,-7.314 l 0,-49.11 c -0.001,0 363.624,0 363.624,0 z"
       style="fill:#e4eaef"
       inkscape:connector-curvature="0" /><polygon
       id="polygon61"
       points="68.963,75.233 141.061,75.233 131.657,117.029 52.245,117.029 "
       style="fill:#ff7058" /><polygon
       id="polygon63"
       points="141.061,75.233 214.204,75.233 211.069,117.029 131.657,117.029 "
       style="fill:#cdd6e0" /><polygon
       id="polygon65"
       points="214.204,75.233 287.347,75.233 290.482,117.029 211.069,117.029 "
       style="fill:#ff7058" /><polygon
       id="polygon67"
       points="287.347,75.233 360.49,75.233 369.894,117.029 290.482,117.029 "
       style="fill:#cdd6e0" /><polygon
       id="polygon69"
       points="360.49,75.233 432.588,75.233 449.306,117.029 369.894,117.029 "
       style="fill:#ff7058" /><g
       id="g71"><path
         id="path73"
         d="m 131.657,134.792 c 0,21.943 17.763,39.706 39.706,39.706 21.943,0 39.706,-17.763 39.706,-39.706 l 0,-17.763 -79.412,0 0,17.763 0,0 z"
         style="fill:#acb3ba"
         inkscape:connector-curvature="0" /><path
         id="path75"
         d="m 290.482,117.029 0,17.763 c 0,21.943 17.763,39.706 39.706,39.706 21.943,0 39.706,-17.763 39.706,-39.706 l 0,-17.763 c 0,0 -79.412,0 -79.412,0 z"
         style="fill:#acb3ba"
         inkscape:connector-curvature="0" /></g><g
       id="g77"><path
         id="path79"
         d="m 52.245,134.792 c 0,21.943 17.763,39.706 39.706,39.706 21.943,0 39.706,-17.763 39.706,-39.706 l 0,-17.763 -79.412,0 0,17.763 z"
         style="fill:#f1543f"
         inkscape:connector-curvature="0" /><path
         id="path81"
         d="m 211.069,134.792 c 0,21.943 17.763,39.706 39.706,39.706 21.943,0 39.706,-17.763 39.706,-39.706 l 0,-17.763 -79.412,0 0,17.763 0,0 z"
         style="fill:#f1543f"
         inkscape:connector-curvature="0" /><path
         id="path83"
         d="m 369.894,117.029 0,17.763 c 0,21.943 17.763,39.706 39.706,39.706 21.943,0 39.706,-17.763 39.706,-39.706 l 0,-17.763 c 0,0 -79.412,0 -79.412,0 z"
         style="fill:#f1543f"
         inkscape:connector-curvature="0" /></g><ellipse
       id="ellipse85"
       ry="62.694"
       rx="61.648998"
       cy="287.34698"
       cx="250.776"
       style="fill:#ff7058" /><g
       id="g87"><path
         id="path89"
         d="m 240.327,306.155 -2.09,-7.314 48.065,0 0,-36.571 -57.469,0 -3.135,-13.584 -16.718,0 0,6.269 12.539,0 14.629,57.469 52.245,0 0,-6.269 -48.066,0 z m 39.706,-38.661 0,24.033 -42.841,0 -6.269,-24.033 49.11,0 z"
         style="fill:#ffffff"
         inkscape:connector-curvature="0" /><circle
         id="ellipse91"
         cy="323.918"
         cx="249.731"
         style="fill:#ffffff"
         r="7.3140001" /><circle
         id="ellipse93"
         cy="323.918"
         cx="276.89801"
         style="fill:#ffffff"
         r="7.3140001" /></g></g><g
     id="g95"
     transform="translate(0,-401.55099)" /><g
     id="g97"
     transform="translate(0,-401.55099)" /><g
     id="g99"
     transform="translate(0,-401.55099)" /><g
     id="g101"
     transform="translate(0,-401.55099)" /><g
     id="g103"
     transform="translate(0,-401.55099)" /><g
     id="g105"
     transform="translate(0,-401.55099)" /><g
     id="g107"
     transform="translate(0,-401.55099)" /><g
     id="g109"
     transform="translate(0,-401.55099)" /><g
     id="g111"
     transform="translate(0,-401.55099)" /><g
     id="g113"
     transform="translate(0,-401.55099)" /><g
     id="g115"
     transform="translate(0,-401.55099)" /><g
     id="g117"
     transform="translate(0,-401.55099)" /><g
     id="g119"
     transform="translate(0,-401.55099)" /><g
     id="g121"
     transform="translate(0,-401.55099)" /><g
     id="g123"
     transform="translate(0,-401.55099)" /></svg>