<?xml version="1.0" encoding="UTF-8" standalone="no"?>
<!-- Generator: Adobe Illustrator 18.0.0, SVG Export Plug-In . SVG Version: 6.00 Build 0)  -->

<svg
   xmlns:dc="http://purl.org/dc/elements/1.1/"
   xmlns:cc="http://creativecommons.org/ns#"
   xmlns:rdf="http://www.w3.org/1999/02/22-rdf-syntax-ns#"
   xmlns:svg="http://www.w3.org/2000/svg"
   xmlns="http://www.w3.org/2000/svg"
   xmlns:sodipodi="http://sodipodi.sourceforge.net/DTD/sodipodi-0.dtd"
   xmlns:inkscape="http://www.inkscape.org/namespaces/inkscape"
   version="1.1"
   id="Capa_1"
   x="0px"
   y="0px"
   viewBox="0 0 90.000001 90.000001"
   xml:space="preserve"
   inkscape:version="0.91 r13725"
   sodipodi:docname="phone-call.svg"
   width="90"
   height="90"><metadata
     id="metadata53"><rdf:RDF><cc:Work
         rdf:about=""><dc:format>image/svg+xml</dc:format><dc:type
           rdf:resource="http://purl.org/dc/dcmitype/StillImage" /><dc:title></dc:title></cc:Work></rdf:RDF></metadata><defs
     id="defs51" /><sodipodi:namedview
     pagecolor="#ffffff"
     bordercolor="#666666"
     borderopacity="1"
     objecttolerance="10"
     gridtolerance="10"
     guidetolerance="10"
     inkscape:pageopacity="0"
     inkscape:pageshadow="2"
     inkscape:window-width="1366"
     inkscape:window-height="705"
     id="namedview49"
     showgrid="false"
     inkscape:zoom="4.2864668"
     inkscape:cx="-1.5164004"
     inkscape:cy="27.5285"
     inkscape:window-x="-8"
     inkscape:window-y="-8"
     inkscape:window-maximized="1"
     inkscape:current-layer="Capa_1" /><g
     id="g3"
     transform="matrix(1.6346597,0,0,1.6687062,0,-1.4988122)"><g
       id="g5"><path
         style="fill:#69bc45"
         d="m 53.595,41.933 c -1.898,-3.587 -8.899,-7.69 -8.899,-7.69 -1.584,-0.903 -3.495,-1.004 -4.399,0.606 0,0 -2.274,2.728 -2.853,3.12 -2.643,1.791 -5.091,1.722 -7.562,-0.75 l -5.743,-5.743 -5.743,-5.743 c -2.472,-2.472 -2.541,-4.919 -0.75,-7.562 0.392,-0.579 3.12,-2.853 3.12,-2.853 1.609,-0.904 1.509,-2.815 0.606,-4.399 0,0 -4.103,-7.001 -7.69,-8.899 -1.526,-0.808 -3.4,-0.526 -4.621,0.695 L 6.522,5.25 c -8.045,8.045 -4.084,17.129 3.961,25.174 l 7.353,7.353 7.353,7.353 c 8.045,8.045 17.129,12.007 25.174,3.961 L 52.9,46.554 c 1.221,-1.221 1.503,-3.095 0.695,-4.621 z"
         id="path7"
         inkscape:connector-curvature="0" /><path
         style="fill:#449e46"
         d="m 54.479,41.465 c -2.008,-3.796 -8.981,-7.912 -9.287,-8.092 -0.896,-0.51 -1.831,-0.78 -2.706,-0.78 -1.301,0 -2.366,0.596 -3.011,1.68 -1.02,1.22 -2.286,2.646 -2.592,2.867 -2.376,1.612 -4.237,1.429 -6.294,-0.629 L 19.101,25.025 c -2.044,-2.045 -2.232,-3.928 -0.632,-6.29 0.224,-0.31 1.65,-1.575 2.871,-2.597 0.778,-0.463 1.312,-1.15 1.545,-1.995 0.312,-1.122 0.082,-2.444 -0.652,-3.731 C 22.06,10.116 17.943,3.142 14.148,1.135 13.44,0.76 12.642,0.562 11.842,0.562 10.524,0.562 9.284,1.076 8.353,2.007 L 5.815,4.543 c -4.014,4.013 -5.467,8.562 -4.321,13.52 0.956,4.132 3.742,8.529 8.282,13.068 l 14.705,14.705 c 5.746,5.746 11.224,8.66 16.282,8.66 0,0 0,0 0.001,0 3.72,0 7.188,-1.581 10.305,-4.698 l 2.537,-2.537 c 1.542,-1.54 1.892,-3.869 0.873,-5.796 z m -2.286,4.382 -2.537,2.537 c -2.729,2.729 -5.72,4.112 -8.891,4.112 0,0 0,0 0,0 -4.509,0 -9.512,-2.717 -14.869,-8.074 L 11.191,29.717 C 6.92,25.446 4.313,21.373 3.443,17.612 2.448,13.312 3.687,9.5 7.229,5.958 L 9.766,3.42 c 0.554,-0.554 1.291,-0.859 2.075,-0.859 0.476,0 0.949,0.118 1.371,0.341 3.294,1.743 7.256,8.454 7.29,8.511 0.449,0.787 0.62,1.608 0.457,2.196 -0.1,0.36 -0.323,0.633 -0.683,0.835 l -0.151,0.104 c -0.853,0.711 -2.882,2.433 -3.308,3.061 -0.612,0.904 -1.018,1.793 -1.23,2.666 -0.711,-1.418 -1.286,-3.061 -1.475,-4.881 -0.057,-0.548 -0.546,-0.931 -1.098,-0.892 -0.549,0.058 -0.949,0.549 -0.892,1.099 0.722,6.953 6.129,11.479 6.359,11.668 0.025,0.021 0.056,0.029 0.082,0.047 l 10.611,10.61 c 0.044,0.044 0.09,0.083 0.134,0.126 0.036,0.053 0.059,0.111 0.106,0.157 0.189,0.187 4.704,4.567 11.599,5.283 0.035,0.003 0.07,0.005 0.104,0.005 0.506,0 0.94,-0.383 0.994,-0.896 0.057,-0.55 -0.342,-1.041 -0.892,-1.099 -2.112,-0.219 -3.983,-0.838 -5.543,-1.556 0.762,-0.231 1.538,-0.614 2.328,-1.149 0.628,-0.425 2.35,-2.455 3.061,-3.308 l 0.104,-0.151 c 0.281,-0.5 0.712,-0.744 1.317,-0.744 0.52,0 1.129,0.185 1.705,0.512 1.879,1.102 7.072,4.559 8.521,7.296 0.605,1.144 0.397,2.529 -0.519,3.445 z"
         id="path9"
         inkscape:connector-curvature="0" /></g><g
       id="g11"><circle
         style="fill:#d0e8f9"
         cx="10.796"
         cy="37.311001"
         r="9.7959995"
         id="circle13" /><path
         style="fill:#eaf6fd"
         d="M 14.348,28.189 1.675,40.863 c 0.706,1.81 1.93,3.357 3.495,4.459 L 18.808,31.684 c -1.102,-1.565 -2.65,-2.789 -4.46,-3.495 z"
         id="path15"
         inkscape:connector-curvature="0" /><path
         style="fill:#b1d3ef"
         d="m 24.741,50.806 -5.97,-6.244 c 1.746,-1.919 2.82,-4.458 2.82,-7.251 0,-5.953 -4.843,-10.796 -10.796,-10.796 C 4.842,26.515 0,31.358 0,37.311 c 0,5.953 4.843,10.796 10.796,10.796 2.442,0 4.689,-0.824 6.499,-2.196 l 6.001,6.276 c 0.196,0.206 0.459,0.309 0.723,0.309 0.249,0 0.497,-0.092 0.691,-0.277 0.398,-0.381 0.413,-1.014 0.031,-1.413 z M 2,37.311 c 0,-4.85 3.946,-8.796 8.796,-8.796 4.85,0 8.796,3.946 8.796,8.796 0,4.85 -3.946,8.796 -8.796,8.796 C 5.946,46.107 2,42.161 2,37.311 Z"
         id="path17"
         inkscape:connector-curvature="0" /></g></g><g
     id="g19"
     transform="translate(0,34.943001)" /><g
     id="g21"
     transform="translate(0,34.943001)" /><g
     id="g23"
     transform="translate(0,34.943001)" /><g
     id="g25"
     transform="translate(0,34.943001)" /><g
     id="g27"
     transform="translate(0,34.943001)" /><g
     id="g29"
     transform="translate(0,34.943001)" /><g
     id="g31"
     transform="translate(0,34.943001)" /><g
     id="g33"
     transform="translate(0,34.943001)" /><g
     id="g35"
     transform="translate(0,34.943001)" /><g
     id="g37"
     transform="translate(0,34.943001)" /><g
     id="g39"
     transform="translate(0,34.943001)" /><g
     id="g41"
     transform="translate(0,34.943001)" /><g
     id="g43"
     transform="translate(0,34.943001)" /><g
     id="g45"
     transform="translate(0,34.943001)" /><g
     id="g47"
     transform="translate(0,34.943001)" /></svg>