<?xml version="1.0" encoding="UTF-8" standalone="no"?>
<!-- Generator: Adobe Illustrator 18.0.0, SVG Export Plug-In . SVG Version: 6.00 Build 0)  -->

<svg
   xmlns:dc="http://purl.org/dc/elements/1.1/"
   xmlns:cc="http://creativecommons.org/ns#"
   xmlns:rdf="http://www.w3.org/1999/02/22-rdf-syntax-ns#"
   xmlns:svg="http://www.w3.org/2000/svg"
   xmlns="http://www.w3.org/2000/svg"
   xmlns:sodipodi="http://sodipodi.sourceforge.net/DTD/sodipodi-0.dtd"
   xmlns:inkscape="http://www.inkscape.org/namespaces/inkscape"
   version="1.1"
   id="Capa_1"
   x="0px"
   y="0px"
   viewBox="0 0 100 100"
   xml:space="preserve"
   inkscape:version="0.91 r13725"
   sodipodi:docname="store.svg"
   width="100"
   height="100"><metadata
     id="metadata109"><rdf:RDF><cc:Work
         rdf:about=""><dc:format>image/svg+xml</dc:format><dc:type
           rdf:resource="http://purl.org/dc/dcmitype/StillImage" /><dc:title></dc:title></cc:Work></rdf:RDF></metadata><defs
     id="defs107" /><sodipodi:namedview
     pagecolor="#ffffff"
     bordercolor="#666666"
     borderopacity="1"
     objecttolerance="10"
     gridtolerance="10"
     guidetolerance="10"
     inkscape:pageopacity="0"
     inkscape:pageshadow="2"
     inkscape:window-width="1366"
     inkscape:window-height="705"
     id="namedview105"
     showgrid="false"
     inkscape:zoom="4.0689655"
     inkscape:cx="29"
     inkscape:cy="29"
     inkscape:window-x="-8"
     inkscape:window-y="-8"
     inkscape:window-maximized="1"
     inkscape:current-layer="Capa_1" /><g
     id="g3"
     transform="scale(1.7241379,1.7241379)"><polygon
       style="fill:#cbb292"
       points="0,30 0,58 58,58 58,30 58,13 0,13 "
       id="polygon5" /><g
       id="g7"><rect
         x="2"
         y="13"
         style="fill:#90bae1"
         width="10"
         height="36"
         id="rect9" /><path
         style="fill:#ecf0f1"
         d="m 10,15 0,32 -6,0 0,-32 6,0 m 2,-2 -10,0 0,36 10,0 0,-36 0,0 z"
         id="path11"
         inkscape:connector-curvature="0" /></g><g
       id="g13"><rect
         x="34"
         y="13"
         style="fill:#90bae1"
         width="21"
         height="36"
         id="rect15" /><path
         style="fill:#ecf0f1"
         d="m 53,15 0,32 -17,0 0,-32 17,0 m 2,-2 -21,0 0,36 21,0 0,-36 0,0 z"
         id="path17"
         inkscape:connector-curvature="0" /></g><rect
       x="14"
       y="13"
       style="fill:#ecf0f1"
       width="16"
       height="45"
       id="rect19" /><rect
       x="16"
       y="36"
       style="fill:#90bae1"
       width="12"
       height="20"
       id="rect21" /><g
       id="g23"><path
         style="fill:#ffffff"
         d="m 40,32 c 0.256,0 0.512,-0.098 0.707,-0.293 l 4,-4 c 0.391,-0.391 0.391,-1.023 0,-1.414 -0.391,-0.391 -1.023,-0.391 -1.414,0 l -4,4 c -0.391,0.391 -0.391,1.023 0,1.414 C 39.488,31.902 39.744,32 40,32 Z"
         id="path25"
         inkscape:connector-curvature="0" /><path
         style="fill:#ffffff"
         d="m 40,37 c 0.256,0 0.512,-0.098 0.707,-0.293 l 2,-2 c 0.391,-0.391 0.391,-1.023 0,-1.414 -0.391,-0.391 -1.023,-0.391 -1.414,0 l -2,2 c -0.391,0.391 -0.391,1.023 0,1.414 C 39.488,36.902 39.744,37 40,37 Z"
         id="path27"
         inkscape:connector-curvature="0" /><path
         style="fill:#ffffff"
         d="M 43.29,31.29 C 43.109,31.479 43,31.729 43,32 c 0,0.26 0.109,0.52 0.29,0.71 0.189,0.18 0.45,0.29 0.71,0.29 0.26,0 0.52,-0.11 0.71,-0.29 C 44.89,32.52 45,32.26 45,32 c 0,-0.26 -0.11,-0.521 -0.29,-0.71 -0.38,-0.37 -1.05,-0.37 -1.42,0 z"
         id="path29"
         inkscape:connector-curvature="0" /><path
         style="fill:#ffffff"
         d="M 45.293,30.707 C 45.488,30.902 45.744,31 46,31 c 0.256,0 0.512,-0.098 0.707,-0.293 l 3,-3 c 0.391,-0.391 0.391,-1.023 0,-1.414 -0.391,-0.391 -1.023,-0.391 -1.414,0 l -3,3 c -0.391,0.391 -0.391,1.023 0,1.414 z"
         id="path31"
         inkscape:connector-curvature="0" /><path
         style="fill:#ffffff"
         d="m 48.293,31.293 -9,9 c -0.391,0.391 -0.391,1.023 0,1.414 C 39.488,41.902 39.744,42 40,42 c 0.256,0 0.512,-0.098 0.707,-0.293 l 9,-9 c 0.391,-0.391 0.391,-1.023 0,-1.414 -0.391,-0.391 -1.023,-0.391 -1.414,0 z"
         id="path33"
         inkscape:connector-curvature="0" /><path
         style="fill:#ffffff"
         d="m 51.71,29.29 c -0.37,-0.37 -1.04,-0.37 -1.42,0 C 50.109,29.479 50,29.729 50,30 c 0,0.26 0.109,0.52 0.29,0.71 0.189,0.18 0.45,0.29 0.71,0.29 0.27,0 0.52,-0.11 0.71,-0.29 C 51.89,30.52 52,30.26 52,30 52,29.729 51.89,29.479 51.71,29.29 Z"
         id="path35"
         inkscape:connector-curvature="0" /></g><rect
       y="52"
       style="fill:#7f6e5d"
       width="14"
       height="6"
       id="rect37"
       x="0" /><rect
       x="30"
       y="52"
       style="fill:#7f6e5d"
       width="28"
       height="6"
       id="rect39" /><rect
       x="4"
       y="52"
       style="fill:#5e5146"
       width="2"
       height="6"
       id="rect41" /><rect
       x="8"
       y="52"
       style="fill:#5e5146"
       width="2"
       height="6"
       id="rect43" /><rect
       x="34"
       y="52"
       style="fill:#5e5146"
       width="2"
       height="6"
       id="rect45" /><rect
       x="38"
       y="52"
       style="fill:#5e5146"
       width="2"
       height="6"
       id="rect47" /><rect
       x="42"
       y="52"
       style="fill:#5e5146"
       width="2"
       height="6"
       id="rect49" /><rect
       x="46"
       y="52"
       style="fill:#5e5146"
       width="2"
       height="6"
       id="rect51" /><rect
       x="50"
       y="52"
       style="fill:#5e5146"
       width="2"
       height="6"
       id="rect53" /><rect
       x="54"
       y="52"
       style="fill:#5e5146"
       width="2"
       height="6"
       id="rect55" /><path
       style="fill:#90bae1"
       d="m 22,20 c -2.378,0 -4.475,-1.188 -5.74,-3 l -0.26,0 0,17 12,0 0,-17 -0.26,0 c -1.265,1.812 -3.362,3 -5.74,3 z"
       id="path57"
       inkscape:connector-curvature="0" /><path
       style="fill:#e64c3c"
       d="M 17,0 14.024,0 14,0 14,0.001 C 7.502,0.012 1.839,4.372 0.104,10.637 -0.109,11.406 0.188,11 0.378,11 L 14,11 15,11 29,11 29,0 17,0 Z"
       id="path59"
       inkscape:connector-curvature="0" /><path
       style="fill:#f3d55b"
       d="m 45,11 12.645,0 c 0.178,0 0.401,0.172 0.257,-0.341 L 57.896,10.636 C 56.277,4.689 51.075,0.473 45,0.043 L 45,0 43.976,0 41,0 29,0 l 0,11 14,0 2,0 z"
       id="path61"
       inkscape:connector-curvature="0" /><path
       style="fill:#f3d55b"
       d="m 29,11 -14,0 0,0 C 16.158,4.63 21.706,0 28.18,0 L 29,0 29,11 Z"
       id="path63"
       inkscape:connector-curvature="0" /><path
       style="fill:#e64c3c"
       d="M 43,11 29,11 29,0 29.82,0 C 36.294,0 41.842,4.63 43,11 l 0,0 z"
       id="path65"
       inkscape:connector-curvature="0" /><path
       style="fill:#c03a2b"
       d="M 8,20 7,20 C 3.134,20 0,16.866 0,13 L 0,11.16 C 0,11.072 0.072,11 0.16,11 l 14.84,0 0,2 c 0,3.866 -3.134,7 -7,7 z"
       id="path67"
       inkscape:connector-curvature="0" /><path
       style="fill:#ddc357"
       d="m 22,20 0,0 c -3.866,0 -7,-3.134 -7,-7 l 0,-2 14,0 0,2 c 0,3.866 -3.134,7 -7,7 z"
       id="path69"
       inkscape:connector-curvature="0" /><path
       style="fill:#c03a2b"
       d="m 36,20 0,0 c -3.866,0 -7,-3.134 -7,-7 l 0,-2 14,0 0,2 c 0,3.866 -3.134,7 -7,7 z"
       id="path71"
       inkscape:connector-curvature="0" /><path
       style="fill:#ddc357"
       d="m 51,20 -1,0 c -3.866,0 -7,-3.134 -7,-7 l 0,-2 14.84,0 C 57.928,11 58,11.072 58,11.16 L 58,13 c 0,3.866 -3.134,7 -7,7 z"
       id="path73"
       inkscape:connector-curvature="0" /></g><g
     id="g75"
     transform="translate(0,42)" /><g
     id="g77"
     transform="translate(0,42)" /><g
     id="g79"
     transform="translate(0,42)" /><g
     id="g81"
     transform="translate(0,42)" /><g
     id="g83"
     transform="translate(0,42)" /><g
     id="g85"
     transform="translate(0,42)" /><g
     id="g87"
     transform="translate(0,42)" /><g
     id="g89"
     transform="translate(0,42)" /><g
     id="g91"
     transform="translate(0,42)" /><g
     id="g93"
     transform="translate(0,42)" /><g
     id="g95"
     transform="translate(0,42)" /><g
     id="g97"
     transform="translate(0,42)" /><g
     id="g99"
     transform="translate(0,42)" /><g
     id="g101"
     transform="translate(0,42)" /><g
     id="g103"
     transform="translate(0,42)" /></svg>