<?xml version="1.0" encoding="UTF-8" standalone="no"?>
<svg
   xmlns:dc="http://purl.org/dc/elements/1.1/"
   xmlns:cc="http://creativecommons.org/ns#"
   xmlns:rdf="http://www.w3.org/1999/02/22-rdf-syntax-ns#"
   xmlns:svg="http://www.w3.org/2000/svg"
   xmlns="http://www.w3.org/2000/svg"
   xmlns:sodipodi="http://sodipodi.sourceforge.net/DTD/sodipodi-0.dtd"
   xmlns:inkscape="http://www.inkscape.org/namespaces/inkscape"
   enable-background="new 0 0 48 48"
   height="200"
   id="Layer_1"
   version="1.1"
   viewBox="0 0 200 200"
   width="200"
   xml:space="preserve"
   inkscape:version="0.91 r13725"
   sodipodi:docname="img-bk.svg"><metadata
     id="metadata9"><rdf:RDF><cc:Work
         rdf:about=""><dc:format>image/svg+xml</dc:format><dc:type
           rdf:resource="http://purl.org/dc/dcmitype/StillImage" /><dc:title></dc:title></cc:Work></rdf:RDF></metadata><defs
     id="defs7" /><sodipodi:namedview
     pagecolor="#ffffff"
     bordercolor="#666666"
     borderopacity="1"
     objecttolerance="10"
     gridtolerance="10"
     guidetolerance="10"
     inkscape:pageopacity="0"
     inkscape:pageshadow="2"
     inkscape:window-width="1366"
     inkscape:window-height="705"
     id="namedview5"
     showgrid="false"
     inkscape:zoom="1.7383042"
     inkscape:cx="70.299649"
     inkscape:cy="110.53424"
     inkscape:window-x="-8"
     inkscape:window-y="-8"
     inkscape:window-maximized="1"
     inkscape:current-layer="Layer_1" /><g
     id="g3339"><rect
       ry="25.293894"
       y="1.9159012"
       x="5.5694656"
       height="196.1682"
       width="188.86107"
       id="rect3337"
       style="opacity:1;fill:#ffffff;fill-opacity:1;stroke:#000000;stroke-width:0;stroke-miterlimit:4;stroke-dasharray:none;stroke-opacity:1" /><path
       style="clip-rule:evenodd;fill-rule:evenodd"
       inkscape:connector-curvature="0"
       id="path3"
       d="m 119,117 -38,0 c -2.209,0 -4,-1.791 -4,-4 l 0,-26 c 0,-2.209 1.791,-4 4,-4 l 38,0 c 2.209,0 4,1.791 4,4 l 0,26 c 0,2.209 -1.791,4 -4,4 z m 2,-30 c 0,-1.104 -0.896,-2 -2,-2 l -38,0 c -1.104,0 -2,0.896 -2,2 l 0,26 c 0,1.104 0.896,2 2,2 l 38,0 c 1.104,0 2,-0.896 2,-2 l 0,-26 z m -3.666,23.715 -6.334,-6.334 -3.619,3.619 3.334,3.334 c 0.381,0.381 0.381,0.999 0,1.381 -0.382,0.381 -1,0.381 -1.381,0 L 95,98.381 82.666,110.715 c -0.381,0.381 -0.999,0.381 -1.381,0 -0.381,-0.382 -0.381,-1 0,-1.381 L 94.19,96.429 c 0.032,-0.048 0.053,-0.101 0.095,-0.144 0.197,-0.197 0.457,-0.287 0.715,-0.281 0.258,-0.006 0.518,0.084 0.715,0.281 0.042,0.043 0.062,0.096 0.095,0.144 l 10.19,10.19 4.19,-4.19 c 0.033,-0.047 0.053,-0.101 0.095,-0.144 0.197,-0.196 0.457,-0.287 0.715,-0.281 0.258,-0.006 0.518,0.085 0.715,0.281 0.042,0.043 0.062,0.097 0.095,0.144 l 6.905,6.905 c 0.381,0.381 0.381,0.999 0,1.381 -0.382,0.381 -1,0.381 -1.381,0 z M 105,95 c -2.209,0 -4,-1.791 -4,-4 0,-2.209 1.791,-4 4,-4 2.209,0 4,1.791 4,4 0,2.209 -1.791,4 -4,4 z m 0,-6 c -1.104,0 -2,0.896 -2,2 0,1.104 0.896,2 2,2 1.104,0 2,-0.896 2,-2 0,-1.104 -0.896,-2 -2,-2 z" /></g></svg>