<?xml version="1.0" encoding="UTF-8" standalone="no"?>
<!-- Created with Inkscape (http://www.inkscape.org/) -->

<svg
   xmlns:dc="http://purl.org/dc/elements/1.1/"
   xmlns:cc="http://creativecommons.org/ns#"
   xmlns:rdf="http://www.w3.org/1999/02/22-rdf-syntax-ns#"
   xmlns:svg="http://www.w3.org/2000/svg"
   xmlns="http://www.w3.org/2000/svg"
   xmlns:sodipodi="http://sodipodi.sourceforge.net/DTD/sodipodi-0.dtd"
   xmlns:inkscape="http://www.inkscape.org/namespaces/inkscape"
   width="100"
   height="100"
   viewBox="0 0 26.458333 26.458334"
   version="1.1"
   id="svg3837"
   inkscape:version="0.92.1 r15371"
   sodipodi:docname="logo.svg">
  <defs
     id="defs3831" />
  <sodipodi:namedview
     id="base"
     pagecolor="#ffffff"
     bordercolor="#666666"
     borderopacity="1.0"
     inkscape:pageopacity="0.0"
     inkscape:pageshadow="2"
     inkscape:zoom="2.8"
     inkscape:cx="83.261131"
     inkscape:cy="36.143527"
     inkscape:document-units="mm"
     inkscape:current-layer="layer1"
     showgrid="false"
     units="px"
     inkscape:window-width="1536"
     inkscape:window-height="801"
     inkscape:window-x="-8"
     inkscape:window-y="-8"
     inkscape:window-maximized="1" />
  <metadata
     id="metadata3834">
    <rdf:RDF>
      <cc:Work
         rdf:about="">
        <dc:format>image/svg+xml</dc:format>
        <dc:type
           rdf:resource="http://purl.org/dc/dcmitype/StillImage" />
        <dc:title></dc:title>
      </cc:Work>
    </rdf:RDF>
  </metadata>
  <g
     inkscape:label="Layer 1"
     inkscape:groupmode="layer"
     id="layer1"
     transform="translate(0,-270.54165)">
    <g
       transform="matrix(0.22101233,0,0,-0.22101233,6.3033615,426.37797)"
       id="g3809">
      <circle
         transform="scale(1,-1)"
         r="59.857143"
         cy="-645.24524"
         cx="31.336737"
         id="path4929"
         style="fill:#333333;fill-opacity:1;stroke:none;stroke-opacity:1" />
      <g
         id="g4791"
         transform="matrix(0.7270949,0,0,0.7270949,-260.31487,241.67908)">
        <path
           d="m 351.4437,590.6131 0.26153,-0.26123 c 0.0298,-0.0584 0.0506,-0.22523 0.0658,-0.50192 0.0149,-0.2758 0.0208,-0.48675 0.0208,-0.63164 0,-0.0878 0,-0.21096 0,-0.37102 0,-0.15947 -0.008,-0.32639 -0.0208,-0.50103 -0.0149,-0.17465 -0.0298,-0.32728 -0.0437,-0.45789 -0.0149,-0.13092 -0.0208,-0.21095 -0.0208,-0.23952 0,-0.0297 -0.0298,-0.0946 -0.087,-0.19666 -0.058,-0.10112 -0.11636,-0.21005 -0.17464,-0.32639 -0.058,-0.11637 -0.11636,-0.23266 -0.17435,-0.34898 -0.0584,-0.1166 -0.087,-0.18894 -0.087,-0.21779 -0.0299,0 -0.0441,-0.0149 -0.0441,-0.0437 v -0.0869 -0.0878 c 0,-0.0299 0.0149,-0.0429 0.0441,-0.0429 0.0298,-0.0584 0.13061,-0.1166 0.30525,-0.17465 0.17376,-0.0584 0.2901,-0.0878 0.34841,-0.0878 v -7.8029 h 5.92878 V 590.613 h 10.89805 v -23.14716 h -2.44149 c 0.0584,-0.0584 0.19667,-0.15263 0.41417,-0.28354 0.21837,-0.13061 0.35583,-0.21065 0.41414,-0.24041 0.0299,0 0.10857,-0.0299 0.23951,-0.0869 0.1315,-0.058 0.27669,-0.11637 0.43588,-0.17436 0.16036,-0.0584 0.30526,-0.1166 0.43616,-0.17464 0.13061,-0.0574 0.21065,-0.10124 0.2404,-0.13062 0.0299,-0.0298 0.0792,-0.0727 0.15174,-0.1309 0.0735,-0.058 0.10939,-0.10113 0.10939,-0.13061 v -9.67701 h -4.83924 c 0,0.087 -0.0727,0.23206 -0.21749,0.43528 -0.1452,0.2041 -0.26153,0.33471 -0.34929,0.39303 h -0.17376 c -0.058,0 -0.11637,0.007 -0.17436,0.0208 -0.0584,0.0149 -0.10207,0.0208 -0.1309,0.0208 -0.058,0 -0.11637,-0.007 -0.17464,-0.0208 -0.058,-0.0149 -0.11636,-0.0208 -0.17437,-0.0208 h -0.21778 c -0.0298,-0.0298 -0.10857,-0.0878 -0.23949,-0.17466 -0.13063,-0.087 -0.27642,-0.17464 -0.43589,-0.2615 -0.16036,-0.0878 -0.30526,-0.17466 -0.43617,-0.26154 -0.13061,-0.0874 -0.21065,-0.13061 -0.23951,-0.13061 -0.11636,-0.0299 -0.31954,-0.0584 -0.61052,-0.0878 -0.29098,-0.0299 -0.58881,-0.058 -0.89407,-0.087 -0.30436,-0.0299 -0.59535,-0.0506 -0.87115,-0.0658 -0.27669,-0.0149 -0.47217,-0.0208 -0.5888,-0.0208 v 6.97577 c 0,0.0575 0.0727,0.21748 0.21779,0.47901 0.14579,0.26152 0.24695,0.46473 0.30526,0.61052 0.0298,0.0299 0.0727,0.0794 0.13061,0.15263 0.0584,0.0726 0.10207,0.10892 0.13092,0.10892 0.11636,0.0584 0.31269,0.15946 0.5885,0.30525 0.27581,0.1452 0.44271,0.23206 0.50103,0.26153 0.11636,0.0298 0.32728,0.08 0.63254,0.15263 0.30526,0.0727 0.63164,0.15263 0.98094,0.2395 0.3481,0.087 0.67538,0.16692 0.98064,0.23951 0.30556,0.0727 0.51532,0.1241 0.63195,0.15263 h -4.57713 l -0.65366,0.52305 v 2.44148 h -5.92878 v -12.38001 h -7.93381 v 3.74883 c -0.0298,0 -0.08,-0.0364 -0.15263,-0.10892 -0.0727,-0.0731 -0.10892,-0.12372 -0.10892,-0.15263 -0.058,-0.058 -0.15263,-0.22523 -0.28324,-0.50164 -0.13061,-0.27581 -0.22523,-0.45817 -0.28355,-0.54475 -0.0299,-0.0584 -0.0723,-0.19577 -0.13061,-0.41417 -0.0584,-0.21778 -0.10207,-0.35612 -0.13061,-0.41415 0,-0.0298 -0.0149,-0.10892 -0.0441,-0.2395 -0.0299,-0.13091 -0.058,-0.2767 -0.087,-0.43618 -0.0298,-0.16007 -0.058,-0.30526 -0.0874,-0.43588 -0.0299,-0.13089 -0.0431,-0.21093 -0.0431,-0.23949 -0.0298,-0.0299 -0.10892,-0.0727 -0.2404,-0.13092 -0.13063,-0.058 -0.22523,-0.10207 -0.28267,-0.13062 -0.0874,-0.0298 -0.26895,-0.0514 -0.54565,-0.0657 -0.27551,-0.0149 -0.45699,-0.0208 -0.54478,-0.0208 v 34.26388 h 10.50591 z"
           style="fill:#00ff00;fill-opacity:1;fill-rule:nonzero;stroke:none"
           id="path4793"
           inkscape:connector-curvature="0" />
        <path
           d="m 403.88518,572.3043 c -0.0584,0 -0.1815,0.0298 -0.37042,0.0869 -0.18894,0.0584 -0.37784,0.11637 -0.56678,0.17465 -0.18893,0.058 -0.37756,0.11637 -0.56649,0.17464 -0.18893,0.058 -0.3121,0.10124 -0.37042,0.13061 -0.058,0 -0.11637,0.0299 -0.17465,0.087 -0.058,0.0584 -0.087,0.11636 -0.087,0.17465 v 17.48049 h 27.98582 v -9.02393 h -16.82623 v -3.09457 c -0.11637,0.0575 -0.35674,0.19578 -0.71942,0.41416 -0.36328,0.21779 -0.61796,0.35584 -0.76315,0.41416 h -0.21749 -0.30527 c -0.0584,0 -0.16036,-0.0149 -0.30526,-0.0437 -0.14519,-0.0298 -0.3121,-0.0584 -0.50103,-0.087 -0.18892,-0.0298 -0.36356,-0.0584 -0.52393,-0.0878 -0.15919,-0.0298 -0.2538,-0.0441 -0.28237,-0.0441 -0.0878,-0.0299 -0.22611,-0.0571 -0.41504,-0.087 -0.18892,-0.0297 -0.37697,-0.058 -0.56589,-0.0869 -0.18893,-0.0298 -0.37102,-0.058 -0.54566,-0.0875 -0.17375,-0.0298 -0.29008,-0.0431 -0.34841,-0.0431 h -0.1306 -0.17466 c -0.0869,0 -0.24693,0.0149 -0.47901,0.0431 -0.23266,0.0299 -0.47217,0.058 -0.71941,0.0875 -0.24695,0.0299 -0.48647,0.0584 -0.71942,0.0869 -0.23267,0.0299 -0.39214,0.0584 -0.47991,0.087 l -0.26122,-0.30437 c 0,-0.0299 0.0359,-0.0727 0.10856,-0.13062 0.0735,-0.0584 0.1241,-0.10207 0.15263,-0.13091 0.0584,0 0.21868,-0.0369 0.47991,-0.10939 0.26153,-0.0727 0.46473,-0.12323 0.61083,-0.15263 0.087,0 0.20975,-0.0149 0.37012,-0.0431 0.15947,-0.0297 0.32727,-0.058 0.50103,-0.0878 0.17464,-0.0298 0.32727,-0.058 0.45788,-0.0869 0.13062,-0.0298 0.22524,-0.0437 0.28325,-0.0437 0.14519,0 0.40672,-0.0149 0.78458,-0.0429 0.37786,-0.0299 0.77742,-0.0584 1.19902,-0.0878 0.421,-0.0299 0.82831,-0.0584 1.22045,-0.087 0.39214,-0.0296 0.6614,-0.0441 0.80629,-0.0441 l 1.48257,-1.35107 v -10.89804 h 16.82624 v -9.02335 h -7.01833 c -0.0298,0 -0.10892,0.0299 -0.23979,0.087 -0.13062,0.0584 -0.22494,0.11636 -0.28325,0.17465 -0.0584,0.058 -0.14519,0.15263 -0.26153,0.28324 -0.11636,0.13091 -0.20321,0.22522 -0.26123,0.28354 0,0.087 -0.0149,0.22523 -0.0441,0.41385 -0.0299,0.18893 -0.058,0.39988 -0.0869,0.63194 -0.0298,0.23267 -0.058,0.45016 -0.0878,0.65338 -0.0298,0.2041 -0.0429,0.34929 -0.0429,0.43616 -0.0298,0.0584 -0.0727,0.16037 -0.13091,0.30526 -0.058,0.14519 -0.11637,0.21839 -0.17435,0.21839 0,0.0298 -0.0364,0.0506 -0.10892,0.0651 -0.0735,0.0149 -0.13834,0.0208 -0.19635,0.0208 -0.0299,0 -0.0727,-0.008 -0.13091,-0.0208 -0.058,-0.0149 -0.087,-0.0363 -0.087,-0.0651 l -0.78516,-3.48729 H 401.7491 v 13.99261 c 0,0.0299 0.0727,0.18208 0.2178,0.45789 0.14489,0.27581 0.24693,0.48645 0.30526,0.63253 0.058,0.0575 0.10892,0.11541 0.15263,0.17376 0.0431,0.058 0.0943,0.0878 0.15263,0.0878 0.0869,0.0299 0.29781,0.0723 0.63165,0.13061 0.33411,0.0584 0.55933,0.10112 0.67567,0.1306 v 0.26153 z"
           style="fill:#ff6600;fill-opacity:1;fill-rule:nonzero;stroke:none"
           id="path4795"
           inkscape:connector-curvature="0" />
        <path
           d="m 434.26963,556.96004 c 0,0.058 0.007,0.11636 0.0208,0.17434 0.0149,0.0584 0.0208,0.10124 0.0208,0.13092 0,0.0296 0.0298,0.10856 0.0878,0.2395 0.058,0.13061 0.11542,0.22523 0.17375,0.28324 0.0299,0.0584 0.11637,0.19667 0.26212,0.41417 0.1452,0.21748 0.24636,0.34154 0.30467,0.37011 0.0298,0.0584 0.08,0.16038 0.15263,0.30556 0.0726,0.1449 0.10857,0.23267 0.10857,0.26123 v 2.96454 c -0.0571,-0.0584 -0.11542,-0.19638 -0.17376,-0.41416 -0.058,-0.21749 -0.0874,-0.35583 -0.0874,-0.41415 -0.0298,-0.058 -0.0651,-0.18893 -0.10892,-0.39214 -0.0437,-0.20321 -0.10207,-0.42933 -0.17465,-0.67538 -0.0727,-0.24724 -0.13061,-0.47248 -0.17374,-0.67658 -0.0437,-0.2032 -0.08,-0.33383 -0.10951,-0.39213 0,-0.0299 -0.0431,-0.11636 -0.1309,-0.26123 -0.087,-0.14518 -0.18894,-0.30556 -0.30438,-0.47932 -0.11636,-0.17434 -0.23266,-0.34155 -0.34899,-0.50161 -0.1166,-0.15948 -0.20351,-0.28355 -0.26153,-0.37043 -0.0584,-0.058 -0.15263,-0.15263 -0.28355,-0.28324 -0.13059,-0.13061 -0.22492,-0.22524 -0.28322,-0.28324 -0.0584,-0.0298 -0.10207,-0.0441 -0.13063,-0.0441 -0.0298,-0.0299 -0.0583,-0.0437 -0.0869,-0.0437 h -0.0441 v 21.36021 c 0,0.0298 0.10124,0.14579 0.30526,0.34901 0.20351,0.20351 0.37786,0.36358 0.52304,0.47901 0.0298,0.0298 0.10893,0.0735 0.23952,0.1318 0.13062,0.0571 0.22523,0.10113 0.28325,0.13063 0.1166,0.0298 0.32727,0.0792 0.63253,0.15173 0.30466,0.0735 0.63166,0.15263 0.98095,0.2404 0.34839,0.087 0.67567,0.16692 0.98093,0.23951 0.30437,0.0726 0.51531,0.12411 0.63164,0.15263 l 0.26154,0.26153 c -0.1166,0 -0.32728,0.0149 -0.63195,0.0437 -0.30526,0.0298 -0.63254,0.0584 -0.98064,0.0869 -0.34931,0.0298 -0.67568,0.0584 -0.98095,0.0878 -0.30526,0.0298 -0.51619,0.0574 -0.63253,0.0869 -0.14489,0 -0.38469,0.0298 -0.71942,0.087 -0.33382,0.0584 -0.54476,0.11636 -0.63163,0.17465 -0.0584,0 -0.11636,0.0364 -0.17466,0.10892 -0.058,0.0723 -0.087,0.12374 -0.087,0.15263 v 9.41607 h 4.57712 c 0.0299,0 0.1449,-0.10207 0.34901,-0.30526 0.20351,-0.20321 0.3484,-0.37785 0.43526,-0.52276 0.0878,-0.0878 0.20412,-0.23295 0.3493,-0.43615 0.1449,-0.20322 0.2175,-0.31955 0.2175,-0.34901 v -7.80289 l 0.52365,0.78517 c 0,0.14489 0.0149,0.3844 0.0431,0.71852 0.0298,0.33471 0.058,0.69055 0.0878,1.06841 0.0298,0.37787 0.058,0.72627 0.087,1.0458 0.0298,0.31984 0.0437,0.55251 0.0437,0.69741 0,0.0584 0.0431,0.18892 0.13061,0.39243 0.0869,0.2041 0.13091,0.33471 0.13091,0.39304 0,0.0298 0.007,0.21748 0.0208,0.56649 0.0149,0.34839 0.0208,0.60991 0.0208,0.78455 0,0.17436 -0.007,0.43589 -0.0208,0.78429 -0.0149,0.34899 -0.0208,0.53792 -0.0208,0.56678 0,0.058 -0.0363,0.24041 -0.10892,0.54478 -0.0735,0.30525 -0.12411,0.48733 -0.15263,0.54476 0,0.0298 -0.008,0.10986 -0.0208,0.2404 -0.0149,0.13061 -0.0208,0.22523 -0.0208,0.28324 h 4.22873 v -8.89332 h 1.61228 v 4.70864 h 3.22607 v 4.18468 h 10.89805 v -11.98758 h -3.61791 v -3.22607 h -3.35669 c -0.0298,-0.058 -0.0727,-0.13062 -0.13089,-0.21837 -0.058,-0.087 -0.11637,-0.1449 -0.17437,-0.17376 -0.1166,-0.0878 -0.37785,-0.25468 -0.78456,-0.50164 -0.40732,-0.24723 -0.68313,-0.39986 -0.82803,-0.45819 h 1.78696 v -2.39685 h 3.48758 v -3.22577 h 3.61791 v -11.98788 h -5.3623 c -0.0298,0.11541 -0.0723,0.3484 -0.13062,0.69739 -0.058,0.34841 -0.11636,0.5668 -0.17375,0.65367 0,0.0299 -0.0298,0.0726 -0.0878,0.13091 -0.058,0.058 -0.11636,0.10207 -0.17434,0.13062 h -0.0431 c -0.0299,0 -0.0584,0.0149 -0.0878,0.0437 -0.0299,0 -0.0429,-0.007 -0.0429,-0.0208 0,-0.0149 -0.0149,-0.0208 -0.0441,-0.0208 h -0.0437 c -0.0298,-0.0584 -0.0727,-0.19666 -0.1306,-0.41417 -0.0584,-0.21748 -0.10147,-0.34155 -0.13091,-0.37011 -0.0298,-0.0584 -0.0727,-0.16037 -0.13061,-0.30526 -0.0584,-0.14519 -0.10207,-0.23297 -0.13092,-0.26153 -0.0298,-0.0298 -0.0506,-0.0584 -0.0658,-0.0878 -0.0149,-0.0299 -0.0364,-0.0584 -0.0649,-0.0869 -0.0297,-0.0298 -0.0727,-0.0584 -0.13062,-0.087 h -3.92345 v 4.18498 h -3.22607 v 4.70774 h -1.61228 v -8.89272 h -9.02424 c -0.0298,0 -0.0727,0.0298 -0.13092,0.087 -0.058,0.0584 -0.10112,0.11636 -0.13061,0.17465 -0.0298,0.0299 -0.0429,0.058 -0.0429,0.087 v 0.17463 z"
           style="fill:#00ccff;fill-opacity:1;fill-rule:nonzero;stroke:none"
           id="path4797"
           inkscape:connector-curvature="0" />
        <path
           d="m 349.61034,541.7208 c 0.0268,0 0.0396,0.0398 0.0396,0.12085 v 0.0396 c 0,0.0268 -0.0125,0.0539 -0.0396,0.08 -0.0268,0 -0.13417,0.0339 -0.32132,0.10054 -0.18714,0.0672 -0.32133,0.11376 -0.40137,0.14073 -0.10703,0.0268 -0.30107,0.0735 -0.58195,0.14072 -0.28175,0.0666 -0.46236,0.10053 -0.54239,0.10053 v 4.33583 h -6.82552 v 8.31047 h 24.04896 v -8.18997 h -2.48881 c -0.0268,0 -0.0742,0.0937 -0.14073,0.28088 -0.0666,0.18713 -0.10053,0.3475 -0.10053,0.48138 0,0.0268 0,0.10054 0,0.22106 0,0.12047 0,0.25379 0,0.40136 0,0.14759 0,0.28087 0,0.40166 0,0.12047 0,0.194 0,0.22077 l -0.12048,0.12085 c -0.08,0.0268 -0.12046,0.0666 -0.12046,0.12047 -0.0268,0.0268 -0.0666,0.10621 -0.11998,0.2404 -0.0539,0.13419 -0.0934,0.21422 -0.12047,0.24129 -0.0541,0.0268 -0.14757,0.0666 -0.28086,0.12047 -0.13418,0.0533 -0.21422,0.0937 -0.2413,0.11985 -0.0268,0.0539 -0.0666,0.14073 -0.12047,0.26123 -0.0532,0.12085 -0.0937,0.20768 -0.12046,0.26064 -0.0268,0 -0.0735,0.0339 -0.14013,0.1003 -0.0675,0.0675 -0.1003,0.114 -0.1003,0.14103 -0.0268,0.0529 -0.10703,0.18029 -0.24129,0.38112 -0.13418,0.20083 -0.2276,0.31449 -0.28086,0.34157 -0.0539,0.08 -0.12047,0.17375 -0.20083,0.28086 -0.08,0.10703 -0.16096,0.21423 -0.241,0.32133 -0.10703,0.10703 -0.20083,0.24039 -0.28086,0.40136 h -0.24129 c 0,-0.08 0.0337,-0.24785 0.10029,-0.50162 0.0675,-0.25469 0.114,-0.4219 0.14103,-0.50193 0.0268,0 0.0731,-0.0336 0.14072,-0.1003 0.0666,-0.0675 0.1003,-0.114 0.1003,-0.14102 0.0268,-0.0268 0.0735,-0.10703 0.14013,-0.2401 0.0675,-0.13418 0.1003,-0.21422 0.1003,-0.2413 l 0.24129,-0.24129 c 0.0268,-0.0529 0.0337,-0.18031 0.0208,-0.38114 -0.0125,-0.20082 -0.0208,-0.32816 -0.0208,-0.38112 0.0532,-0.0541 0.1806,-0.18061 0.38114,-0.38142 0.20083,-0.20055 0.32816,-0.31449 0.38142,-0.34157 0.0539,-0.0539 0.10703,-0.14073 0.16096,-0.26123 0.0533,-0.11996 0.08,-0.20677 0.08,-0.26063 0.0268,-0.13417 0.0532,-0.40165 0.0802,-0.80302 0.0268,-0.40136 0.0404,-0.66884 0.0404,-0.80271 h -3.21267 V 523.61337 H 356.074 c -0.0268,0.13418 -0.0666,0.38232 -0.12084,0.74322 -0.0529,0.3609 -0.10703,0.60874 -0.16007,0.74292 0,0.0532 -0.034,0.20737 -0.10053,0.46145 -0.0672,0.25469 -0.11365,0.43499 -0.14073,0.5421 -0.0268,0.10703 -0.0666,0.25408 -0.12047,0.44123 -0.0532,0.18804 -0.0937,0.28176 -0.11985,0.28176 l -0.0809,0.0396 c -0.0268,0 -0.0464,-0.007 -0.0599,-0.0208 -0.0149,-0.0125 -0.034,-0.0208 -0.0601,-0.0208 h -0.0405 c -0.0268,0 -0.0731,-0.034 -0.14073,-0.10054 -0.0666,-0.0672 -0.1003,-0.11352 -0.1003,-0.14072 0,-0.08 -0.0149,-0.21422 -0.0398,-0.40136 -0.0268,-0.18745 -0.0539,-0.38143 -0.08,-0.58197 -0.0268,-0.20084 -0.0539,-0.39482 -0.0809,-0.58195 -0.0268,-0.18804 -0.0396,-0.32133 -0.0396,-0.40225 0,-0.0532 -0.034,-0.14015 -0.1003,-0.26064 -0.0675,-0.12085 -0.12763,-0.20767 -0.18149,-0.26063 0,-0.0268 -0.0326,-0.0675 -0.1003,-0.12048 -0.0666,-0.0541 -0.11305,-0.0937 -0.14014,-0.12085 -0.0539,-0.0529 -0.14073,-0.10703 -0.26152,-0.16006 -0.1196,-0.0541 -0.19398,-0.0813 -0.21987,-0.0813 h -5.70147 v 17.34422 c 0,0.0539 0.0601,0.14074 0.18059,0.26154 0.12047,0.12046 0.22105,0.19397 0.30109,0.22074 0.10703,0.0532 0.3145,0.11306 0.62244,0.18061 0.30793,0.0666 0.5153,0.10029 0.62242,0.10029"
           style="fill:#ff00ee;fill-opacity:1;fill-rule:nonzero;stroke:none"
           id="path4799"
           inkscape:connector-curvature="0" />
        <path
           d="m 369.4035,528.07005 c 0,0 0.0125,0.0268 0.0396,0.0809 v 0.0396 c 0,0.08 -0.0149,0.12047 -0.0396,0.12047 0,0.0268 -0.0935,0.0666 -0.28175,0.12085 -0.18715,0.0529 -0.33383,0.0934 -0.44093,0.12048 -0.08,0.0532 -0.24785,0.10703 -0.50193,0.16036 -0.25468,0.0539 -0.42159,0.0934 -0.50161,0.12046 v 26.2569 h 11.88313 c 0.0539,0 0.14074,-0.0666 0.26153,-0.20084 0.12047,-0.13388 0.20737,-0.2276 0.26064,-0.28057 0.0268,-0.0541 0.0672,-0.17464 0.12046,-0.36208 0.0539,-0.18715 0.0937,-0.32133 0.12048,-0.40137 0,-0.0529 0.0149,-0.16007 0.0396,-0.32132 0.0268,-0.16006 0.0541,-0.34067 0.0813,-0.5415 0.0268,-0.20052 0.0529,-0.38797 0.08,-0.56231 0.0268,-0.17376 0.0396,-0.27432 0.0396,-0.3011 0,-0.0268 0.0268,-0.0735 0.0809,-0.14014 0.0532,-0.0675 0.10703,-0.1003 0.16037,-0.1003 l 0.12046,-0.0405 h 0.08 c 0.0268,0 0.0408,0.0149 0.0408,0.0405 0.0268,0.08 0.0599,0.21332 0.10029,0.40137 0.0396,0.18714 0.0935,0.38112 0.16006,0.58195 0.0675,0.20084 0.12086,0.39482 0.16127,0.58196 0.0396,0.18714 0.0731,0.32132 0.1003,0.40136 0.0268,0.08 0.0666,0.28086 0.11996,0.60219 0.0539,0.32133 0.0935,0.53554 0.12048,0.64265 h 3.69407 l 2.00711,-1.72624 c 0.0268,-0.0268 0.14102,-0.0208 0.34155,0.0208 0.20083,0.0396 0.43438,0.1003 0.70275,0.1803 0.26718,0.0804 0.53465,0.16721 0.80272,0.26063 0.26748,0.0937 0.4817,0.1815 0.64177,0.26154 0.0268,0.0268 0.0946,0.0869 0.20083,0.18059 0.10703,0.0934 0.21421,0.19369 0.32132,0.30079 0.10703,0.10703 0.20083,0.20767 0.28176,0.30109 0.08,0.0937 0.13329,0.16722 0.16007,0.22108 h 3.97494 v -13.65016 l -0.24129,-0.24099 c -0.0529,-0.0541 -0.14074,-0.10703 -0.26063,-0.16038 -0.12048,-0.0539 -0.20738,-0.0809 -0.26123,-0.0809 -0.0268,-0.0268 -0.14014,-0.0268 -0.34096,0 -0.20054,0.0268 -0.32788,0.0268 -0.38203,0 -0.0268,-0.0268 -0.0731,-0.0666 -0.13983,-0.12047 -0.0675,-0.0532 -0.10054,-0.0937 -0.10054,-0.11997 0.0532,-0.0268 0.13329,-0.0742 0.24041,-0.14072 0.10703,-0.0666 0.18803,-0.10053 0.24129,-0.10053 0.0532,-0.0268 0.22105,-0.0666 0.50192,-0.12048 0.28086,-0.0532 0.44867,-0.0937 0.50163,-0.12047 0.0541,-0.0268 0.10703,-0.0666 0.16126,-0.11998 0.0529,-0.0539 0.08,-0.10703 0.08,-0.16094 v -16.34068 h -27.26044 v 3.73454 c 0,0.0268 0.0666,0.10054 0.20054,0.22017 0.13328,0.12046 0.22701,0.20736 0.28086,0.2615 0.10703,0.0529 0.31479,0.10703 0.62242,0.16008 0.30794,0.0541 0.5153,0.0802 0.62242,0.0802 z m 8.43038,3.97463 h 7.06681 v 2.65006 c 0.0268,0 0.087,0.0149 0.1803,0.0405 0.0937,0.0268 0.15353,0.0396 0.18061,0.0396 0.0539,-0.0268 0.22105,-0.11376 0.50191,-0.26063 0.28087,-0.14757 0.44868,-0.23446 0.50164,-0.26123 h 0.44212 0.56172 c 0.0268,0 0.11376,0.0208 0.26123,0.0607 0.14698,0.0396 0.3011,0.0731 0.46146,0.1003 0.16097,0.0268 0.3145,0.0532 0.46206,0.08 0.14669,0.0268 0.24724,0.0405 0.3011,0.0405 0.16036,0 0.42753,0.007 0.80301,0.0208 0.37428,0.0149 0.7825,0.0208 1.22463,0.0208 0.44093,0 0.84913,0.007 1.2246,0.0208 0.37428,0.0149 0.64176,0.0208 0.80272,0.0208 0,0.0529 -0.0404,0.10703 -0.12047,0.16006 -0.0268,0.0268 -0.10053,0.0675 -0.22106,0.12086 -0.12046,0.0539 -0.20738,0.0934 -0.26064,0.12047 -0.10703,0.0268 -0.32132,0.0735 -0.64265,0.14071 -0.32133,0.0666 -0.52185,0.10053 -0.60219,0.10053 -0.16007,0 -0.44866,0.0125 -0.86341,0.0396 -0.41416,0.0268 -0.86283,0.0539 -1.34451,0.08 -0.4823,0.0268 -0.93691,0.0541 -1.36536,0.0809 -0.42844,0.0268 -0.72269,0.0396 -0.88305,0.0396 l -1.60573,1.48524 v 9.67612 h -7.06683 v -14.61414 z"
           style="fill:#666666;fill-opacity:1;fill-rule:nonzero;stroke:none"
           id="path4801"
           inkscape:connector-curvature="0" />
        <path
           d="m 401.60197,529.91707 c -0.0268,0.0539 -0.1003,0.12048 -0.22076,0.20055 -0.12084,0.0802 -0.20767,0.14757 -0.26064,0.20083 -0.0541,0.0268 -0.20083,0.0869 -0.44212,0.1806 -0.241,0.0943 -0.50162,0.19458 -0.78249,0.30108 -0.28087,0.10703 -0.54239,0.20739 -0.78278,0.30081 -0.24101,0.0946 -0.40226,0.15442 -0.4823,0.18149 -0.10703,0.0533 -0.20083,0.10703 -0.28087,0.16036 -0.08,0.0268 -0.14666,0.0664 -0.20081,0.12047 v 23.5268 h 10.03701 v -13.36928 h 1.96783 v 3.69317 h 7.46728 v -3.69317 h 1.96753 v 13.36928 h 5.33939 c 0.0268,0 0.0666,-0.0268 0.12047,-0.08 0.0533,-0.0541 0.0937,-0.10703 0.12085,-0.16126 0.0529,-0.10703 0.13983,-0.31448 0.26062,-0.62242 0.12047,-0.30764 0.194,-0.51533 0.22077,-0.62152 h 0.64177 v 1.48523 h 3.33317 v -17.34393 c -0.0809,0 -0.21422,-0.0149 -0.40135,-0.0405 -0.18805,-0.0268 -0.38203,-0.0532 -0.58286,-0.0804 -0.20084,-0.0268 -0.39482,-0.0529 -0.58195,-0.08 -0.18715,-0.0268 -0.32134,-0.0405 -0.40138,-0.0405 -0.0532,-0.0268 -0.1806,-0.0735 -0.38143,-0.14013 -0.20053,-0.0672 -0.32786,-0.1003 -0.38112,-0.1003 -0.13418,-0.0268 -0.3484,-0.0539 -0.64266,-0.08 -0.29425,-0.0268 -0.61558,-0.0541 -0.96398,-0.0809 -0.34752,-0.0268 -0.67539,-0.0533 -0.98332,-0.0802 -0.30793,-0.0268 -0.51531,-0.0405 -0.62243,-0.0405 l -0.76225,-0.48139 h 6.70473 v -12.8879 h -10.037 v 3.85445 h -2.85059 v 1.7667 c 0.0529,0 0.17375,0.007 0.36089,0.0208 0.18715,0.0149 0.30794,0.0331 0.36178,0.0601 0.0533,0.0268 0.14015,0.0666 0.26063,0.12047 0.12048,0.0532 0.20739,0.0937 0.26063,0.12047 0.0539,0.0532 0.17466,0.18061 0.3618,0.38144 0.18715,0.20052 0.30794,0.32786 0.36089,0.38112 0.10703,0 0.28178,0.0149 0.52216,0.0404 0.241,0.0268 0.48825,0.0533 0.74292,0.08 0.25379,0.0268 0.50192,0.0541 0.74233,0.0802 0.24099,0.0268 0.40226,0.0405 0.48228,0.0405 0.0533,0 0.20083,0.0268 0.44123,0.08 0.241,0.0539 0.42844,0.10703 0.56233,0.16037 0.0533,0.0268 0.17376,0.0741 0.3609,0.14074 0.18744,0.0666 0.30794,0.10029 0.36209,0.10029 0.0529,0.0268 0.14668,0.0735 0.28056,0.14103 0.13419,0.0666 0.21423,0.1003 0.24129,0.1003 0.0268,0.0268 0.0125,0.0735 -0.0404,0.13985 -0.0539,0.0675 -0.08,0.114 -0.08,0.14101 h -0.76346 v 3.45279 c -0.0529,-0.0268 -0.12644,-0.1003 -0.22074,-0.22107 -0.0937,-0.12047 -0.14015,-0.20737 -0.14015,-0.26063 0,-0.0539 -0.0149,-0.16781 -0.0405,-0.34156 -0.0268,-0.17375 -0.0529,-0.35405 -0.08,-0.54209 -0.0268,-0.18744 -0.0532,-0.36775 -0.08,-0.5415 -0.0268,-0.17464 -0.0405,-0.2877 -0.0405,-0.34155 -0.0268,-0.10703 -0.0666,-0.3148 -0.12085,-0.62243 -0.0529,-0.30794 -0.10703,-0.50192 -0.16006,-0.58196 -0.0533,-0.0268 -0.16037,-0.0541 -0.32134,-0.08 -0.16037,-0.0268 -0.33501,-0.0541 -0.52216,-0.0803 -0.18713,-0.0268 -0.36089,-0.0539 -0.52215,-0.0809 -0.16008,-0.0268 -0.28087,-0.0396 -0.3609,-0.0396 -0.0532,0 -0.20737,-0.0125 -0.46116,-0.0405 -0.25498,-0.0268 -0.53555,-0.0532 -0.84349,-0.08 -0.30793,-0.0268 -0.62242,-0.0541 -0.94374,-0.0802 -0.32132,-0.0268 -0.56173,-0.0405 -0.72269,-0.0405 h -0.16037 -0.08 c -0.0541,0.0541 -0.10703,0.18059 -0.16126,0.38113 -0.0529,0.20082 -0.08,0.32817 -0.08,0.38232 h -5.33938 v -4.33673 h -2.97139 v -3.85443 h -10.037 v 6.30365 h 3.45278 z"
           style="fill:#fff215;fill-opacity:1;fill-rule:nonzero;stroke:none"
           id="path4803"
           inkscape:connector-curvature="0" />
        <path
           d="m 434.56388,528.07005 c 0,0 0.0149,0.0268 0.0396,0.0809 v 0.0396 c 0,0.08 -0.0125,0.12047 -0.0396,0.12047 0,0.0268 -0.0937,0.0666 -0.28086,0.12085 -0.18803,0.0529 -0.33471,0.0934 -0.44182,0.12048 -0.0804,0.0532 -0.24813,0.10703 -0.50193,0.16036 -0.25468,0.0539 -0.4216,0.0934 -0.50193,0.12046 v 26.2569 h 10.03701 v -5.09898 h 3.97494 v -5.29982 h 2.44923 v 4.21592 h 0.40136 c 0.08,0 0.27402,-0.0149 0.58196,-0.0404 0.30794,-0.0268 0.64176,-0.0599 1.00355,-0.10029 0.36121,-0.0396 0.70275,-0.0735 1.02409,-0.1003 0.32131,-0.0268 0.52185,-0.0398 0.60218,-0.0398 0.10703,0 0.28057,0.007 0.52186,0.0208 0.2404,0.0149 0.49509,0.0208 0.76256,0.0208 0.26807,0 0.52871,0.007 0.78249,0.0208 0.2547,0.0149 0.43528,0.0208 0.54239,0.0208 0,0.0268 0.0268,0.0529 0.08,0.08 0.0541,0.0268 0.0675,0.0666 0.0405,0.12048 -0.0268,0 -0.13389,0.034 -0.32134,0.10053 -0.18714,0.0666 -0.33471,0.11364 -0.44181,0.14072 -0.10621,0.0268 -0.2538,0.0735 -0.44125,0.14013 -0.18714,0.0666 -0.37427,0.12048 -0.56231,0.16096 -0.18744,0.0396 -0.35434,0.08 -0.50192,0.11985 -0.14669,0.0405 -0.22018,0.0607 -0.22018,0.0607 -0.0539,0 -0.20142,0.0149 -0.44182,0.0396 -0.24129,0.0268 -0.50192,0.0539 -0.78279,0.0809 -0.28145,0.0268 -0.54209,0.0532 -0.78338,0.08 -0.24039,0.0268 -0.40136,0.0398 -0.48168,0.0398 -0.0529,0.0268 -0.17377,0.0672 -0.36091,0.12047 -0.18804,0.0539 -0.30794,0.0937 -0.36178,0.12046 -0.08,0.0533 -0.18062,0.14758 -0.30112,0.28088 -0.12046,0.13418 -0.18058,0.2142 -0.18058,0.24129 v 4.45632 h 9.87694 v -31.47666 h -5.66161 c -0.0533,0 -0.14014,0.0674 -0.26063,0.20083 -0.12047,0.13419 -0.20738,0.22761 -0.26064,0.28175 -0.0268,0.0529 -0.0675,0.13983 -0.12047,0.26064 -0.0541,0.12046 -0.0937,0.20737 -0.12047,0.26064 -0.0268,0.0539 -0.0735,0.20736 -0.14102,0.46205 -0.0666,0.25377 -0.1003,0.4216 -0.1003,0.50193 0,0.0529 -0.0149,0.1669 -0.0396,0.34155 -0.0268,0.17375 -0.0541,0.35406 -0.0813,0.54148 -0.0268,0.18715 -0.0529,0.36835 -0.08,0.54211 -0.0268,0.17374 -0.0396,0.28769 -0.0396,0.34156 -0.0539,0.18742 -0.10703,0.43438 -0.16096,0.74233 -0.0533,0.30763 -0.0937,0.46206 -0.12085,0.46206 h -0.2404 c 0,-0.1342 -0.0149,-0.38888 -0.0404,-0.76317 -0.0268,-0.37458 -0.0529,-0.7691 -0.08,-1.18415 -0.0268,-0.41505 -0.0539,-0.80956 -0.08,-1.18414 -0.0268,-0.37518 -0.0405,-0.64266 -0.0405,-0.80361 0,-0.16037 -0.0339,-0.36775 -0.10053,-0.62154 -0.0666,-0.25469 -0.11377,-0.38232 -0.13985,-0.38232 h -2.12789 v 5.09928 h -3.81457 v 2.32843 c 0,0.0268 0.0607,0.10053 0.18028,0.22107 0.12085,0.12047 0.22108,0.22105 0.3011,0.30108 0.0541,0.0268 0.14103,0.0731 0.26153,0.14074 0.12047,0.0666 0.20737,0.10053 0.26064,0.10053 h 4.93891 c -0.0541,0.0529 -0.17464,0.13983 -0.36179,0.26034 -0.18743,0.12084 -0.32133,0.19398 -0.40165,0.22105 -0.0529,0 -0.18031,0.0149 -0.38113,0.0396 -0.20083,0.0268 -0.43527,0.0541 -0.70246,0.0813 -0.26836,0.0268 -0.5287,0.0529 -0.78369,0.08 -0.25378,0.0268 -0.44777,0.0396 -0.58165,0.0396 -0.0532,0 -0.2279,0.007 -0.52215,0.0208 -0.29425,0.0149 -0.50848,0.0208 -0.64177,0.0208 -0.16127,0 -0.37548,-0.007 -0.64265,-0.0208 -0.26749,-0.0149 -0.41505,-0.0208 -0.44214,-0.0208 -0.0529,0 -0.15351,-0.0268 -0.3011,-0.08 -0.14666,-0.0532 -0.24693,-0.10703 -0.30108,-0.16037 v 1.72654 h -2.48881 v -10.39909 h -10.037 v 3.73454 c 0,0.0268 0.0666,0.10053 0.20083,0.22016 0.13418,0.12048 0.2276,0.20738 0.28087,0.26152 0.10703,0.0529 0.31448,0.10703 0.62242,0.16007 0.30764,0.0541 0.51531,0.0802 0.62242,0.0802"
           style="fill:#663399;fill-opacity:1;fill-rule:nonzero;stroke:none"
           id="path4805"
           inkscape:connector-curvature="0" />
        <path
           d="m 390.72088,590.6131 c 0.058,-0.0875 0.1812,-0.19638 0.37012,-0.32697 0.18893,-0.13092 0.32727,-0.19667 0.41416,-0.19667 0.11636,0 0.3121,0.0658 0.5888,0.19667 0.27551,0.13059 0.44271,0.2395 0.50074,0.32697 h 5.66755 v -26.76536 c -0.058,0 -0.19637,0.0149 -0.41416,0.0431 -0.21837,0.0298 -0.35673,0.058 -0.41386,0.0874 -0.0584,0 -0.23296,0.087 -0.52394,0.26153 -0.29009,0.17376 -0.46473,0.26153 -0.52274,0.26153 -0.087,0 -0.26153,0.0149 -0.52306,0.0437 -0.26123,0.0299 -0.54476,0.0573 -0.85002,0.087 -0.30526,0.0299 -0.61053,0.0584 -0.91608,0.0869 -0.30436,0.0299 -0.5296,0.0441 -0.67539,0.0441 -0.0298,0 -0.12322,0 -0.28324,0 -0.15947,0 -0.33412,0.008 -0.52305,0.0208 -0.18893,0.0149 -0.37785,0.0208 -0.56679,0.0208 -0.18892,0 -0.34155,0 -0.45789,0 -0.11541,0 -0.26807,0 -0.457,0 -0.18892,0 -0.37131,-0.008 -0.54506,-0.0208 -0.17435,-0.0149 -0.32698,-0.0208 -0.45789,-0.0208 -0.13061,0 -0.21094,0 -0.2395,0 -0.0298,0 -0.14579,-0.0298 -0.349,-0.0869 -0.20351,-0.0584 -0.34841,-0.11637 -0.43618,-0.17466 -0.087,-0.0583 -0.27581,-0.14521 -0.56677,-0.26152 -0.29011,-0.11636 -0.46475,-0.20411 -0.52276,-0.26154 l -0.26152,-0.26212 c -0.0299,-0.0575 -0.0437,-0.10112 -0.0437,-0.13061 v -0.17375 c 0,-0.0298 0.007,-0.0735 0.0208,-0.1309 0.0149,-0.058 0.0208,-0.10207 0.0208,-0.13063 0.0298,0.0573 0.0727,0.11542 0.13061,0.17377 0.0584,0.058 0.10206,0.0878 0.13091,0.0878 0.058,0.058 0.15263,0.11542 0.28324,0.17377 0.13091,0.058 0.22523,0.10206 0.28354,0.13061 0.087,0.058 0.26897,0.11636 0.54478,0.17465 0.27579,0.058 0.44271,0.0874 0.50103,0.0874 h 1.61318 1.61258 c 0.0298,0 0.11637,-0.008 0.26153,-0.0208 0.14578,-0.0149 0.30526,-0.0363 0.47991,-0.0657 0.17434,-0.0298 0.34156,-0.0584 0.50073,-0.087 0.16036,-0.0299 0.28354,-0.0584 0.37132,-0.0878 0.058,-0.0299 0.19546,-0.0726 0.41414,-0.13062 0.2175,-0.0584 0.35584,-0.11566 0.41386,-0.17375 0.0584,-0.0299 0.19578,-0.1166 0.41416,-0.26153 0.21779,-0.14609 0.34155,-0.23297 0.37042,-0.26243 0.058,-0.0299 0.2395,-0.0727 0.54477,-0.1306 0.30526,-0.0584 0.48644,-0.10125 0.54477,-0.13063 0.0584,-0.0584 0.15263,-0.10892 0.28324,-0.15291 0.13091,-0.0429 0.25467,-0.0943 0.3713,-0.15263 0.11637,-0.087 0.26124,-0.15919 0.43587,-0.2175 v -5.66666 h -11.15956 v 9.15395 h -3.79256 v -9.24172 c -0.11636,0 -0.30526,0 -0.56677,0 -0.26153,0 -0.54477,0.008 -0.85003,0.0208 -0.30557,0.0149 -0.58881,0.0299 -0.85033,0.0437 -0.26153,0.0149 -0.45045,0.0208 -0.56679,0.0208 -0.14489,0.0299 -0.4216,0.0727 -0.82801,0.1306 -0.40671,0.0584 -0.66884,0.10147 -0.78456,0.13091 -0.058,0.0299 -0.23267,0.13061 -0.52366,0.30526 -0.29008,0.17376 -0.46473,0.26153 -0.52275,0.26153 -0.14518,-0.0298 -0.3484,-0.14609 -0.61081,-0.34929 -0.26123,-0.20321 -0.42072,-0.36358 -0.47903,-0.47901 h -4.57682 v 34.1761 h 18.57032 z"
           style="fill:#ffffff;fill-opacity:1;fill-rule:nonzero;stroke:none"
           id="path4807"
           inkscape:connector-curvature="0" />
        <path
           d="m 379.12513,581.45825 h 3.53044 v 3.22607 h -3.53044 z m 2.17939,-1.14933 h 1.48166 v -1.87501 h 4.83955 v 1.87501 h 1.48167 v -5.75443 h -2.00472 v -2.04847 h -3.79255 v 2.04847 h -2.00561 z m 6.45183,1.14933 h 3.48728 v 3.22607 h -3.48728 z"
           style="fill:#000000;fill-opacity:1;fill-rule:nonzero;stroke:none"
           id="path4809"
           inkscape:connector-curvature="0" />
      </g>
    </g>
  </g>
</svg>
